G04 EAGLE Gerber RS-274X export*
G75*
%MOMM*%
%FSLAX34Y34*%
%LPD*%
%INBottom Copper*%
%IPPOS*%
%AMOC8*
5,1,8,0,0,1.08239X$1,22.5*%
G01*
%ADD10R,1.200000X2.000000*%
%ADD11R,1.500000X1.200000*%
%ADD12R,1.500000X2.000000*%
%ADD13R,3.800000X2.000000*%
%ADD14C,1.981200*%
%ADD15R,1.000000X1.400000*%
%ADD16R,1.800000X2.400000*%
%ADD17R,1.600000X1.300000*%
%ADD18C,1.790700*%
%ADD19R,2.000000X1.600000*%
%ADD20R,1.500000X1.300000*%
%ADD21R,1.300000X1.500000*%
%ADD22C,1.422400*%
%ADD23R,1.300000X1.600000*%
%ADD24C,0.508000*%
%ADD25C,2.794000*%

G36*
X130182Y26555D02*
X130182Y26555D01*
X130254Y26557D01*
X130303Y26575D01*
X130354Y26583D01*
X130417Y26617D01*
X130485Y26642D01*
X130525Y26674D01*
X130571Y26699D01*
X130621Y26751D01*
X130677Y26795D01*
X130705Y26839D01*
X130741Y26877D01*
X130771Y26942D01*
X130810Y27002D01*
X130822Y27053D01*
X130844Y27100D01*
X130852Y27171D01*
X130870Y27241D01*
X130866Y27293D01*
X130871Y27344D01*
X130856Y27415D01*
X130851Y27486D01*
X130830Y27534D01*
X130819Y27585D01*
X130782Y27646D01*
X130754Y27712D01*
X130710Y27768D01*
X130693Y27796D01*
X130675Y27811D01*
X130650Y27843D01*
X129995Y28498D01*
X128961Y30995D01*
X128947Y31016D01*
X128940Y31041D01*
X128849Y31182D01*
X124806Y36186D01*
X122889Y42679D01*
X123603Y49412D01*
X123859Y49881D01*
X123893Y49980D01*
X123933Y50078D01*
X123935Y50100D01*
X123940Y50113D01*
X123940Y50145D01*
X123951Y50245D01*
X123951Y151975D01*
X126542Y158230D01*
X133157Y164845D01*
X133195Y164898D01*
X133241Y164945D01*
X133281Y165018D01*
X133301Y165045D01*
X133306Y165063D01*
X133322Y165092D01*
X134162Y167120D01*
X135412Y168370D01*
X135465Y168444D01*
X135525Y168514D01*
X135537Y168544D01*
X135556Y168570D01*
X135583Y168657D01*
X135617Y168742D01*
X135621Y168783D01*
X135628Y168805D01*
X135627Y168837D01*
X135635Y168909D01*
X135635Y169963D01*
X137608Y174724D01*
X141252Y178368D01*
X146013Y180341D01*
X151167Y180341D01*
X155928Y178368D01*
X159572Y174724D01*
X161545Y169963D01*
X161545Y168909D01*
X161559Y168819D01*
X161567Y168728D01*
X161579Y168698D01*
X161584Y168666D01*
X161627Y168585D01*
X161663Y168501D01*
X161689Y168469D01*
X161700Y168449D01*
X161723Y168426D01*
X161768Y168370D01*
X163018Y167120D01*
X165609Y160865D01*
X165609Y152825D01*
X163018Y146570D01*
X161722Y145274D01*
X161684Y145221D01*
X161638Y145174D01*
X161598Y145101D01*
X161579Y145074D01*
X161573Y145056D01*
X161557Y145027D01*
X159572Y140236D01*
X158212Y138875D01*
X158159Y138801D01*
X158099Y138732D01*
X158087Y138701D01*
X158068Y138675D01*
X158041Y138588D01*
X158007Y138503D01*
X158003Y138462D01*
X157996Y138440D01*
X157997Y138408D01*
X157989Y138337D01*
X157989Y48289D01*
X157993Y48264D01*
X157990Y48239D01*
X158020Y48074D01*
X158251Y47291D01*
X157993Y44860D01*
X157995Y44832D01*
X157989Y44780D01*
X157989Y42335D01*
X157676Y41581D01*
X157671Y41556D01*
X157659Y41534D01*
X157623Y41370D01*
X157537Y40558D01*
X156368Y38411D01*
X156359Y38385D01*
X156333Y38338D01*
X155398Y36080D01*
X154821Y35503D01*
X154806Y35482D01*
X154786Y35466D01*
X154690Y35328D01*
X153500Y33141D01*
X151799Y31767D01*
X151729Y31688D01*
X151655Y31613D01*
X151645Y31594D01*
X151635Y31583D01*
X151623Y31554D01*
X151574Y31466D01*
X150345Y28498D01*
X149690Y27843D01*
X149649Y27785D01*
X149599Y27733D01*
X149577Y27686D01*
X149547Y27644D01*
X149526Y27575D01*
X149496Y27510D01*
X149490Y27458D01*
X149475Y27408D01*
X149476Y27337D01*
X149469Y27266D01*
X149480Y27215D01*
X149481Y27163D01*
X149506Y27095D01*
X149521Y27025D01*
X149548Y26980D01*
X149565Y26932D01*
X149610Y26876D01*
X149647Y26814D01*
X149687Y26780D01*
X149719Y26740D01*
X149779Y26701D01*
X149834Y26654D01*
X149882Y26635D01*
X149926Y26607D01*
X149996Y26589D01*
X150062Y26562D01*
X150133Y26554D01*
X150165Y26546D01*
X150188Y26548D01*
X150229Y26544D01*
X176440Y26544D01*
X176530Y26558D01*
X176621Y26566D01*
X176651Y26578D01*
X176682Y26583D01*
X176763Y26626D01*
X176847Y26662D01*
X176879Y26688D01*
X176900Y26699D01*
X176922Y26722D01*
X176978Y26767D01*
X184995Y34784D01*
X185002Y34794D01*
X185012Y34801D01*
X185074Y34894D01*
X185139Y34984D01*
X185143Y34995D01*
X185149Y35005D01*
X185179Y35112D01*
X185211Y35219D01*
X185211Y35231D01*
X185214Y35242D01*
X185208Y35353D01*
X185205Y35465D01*
X185201Y35476D01*
X185200Y35488D01*
X185159Y35591D01*
X185121Y35696D01*
X185113Y35705D01*
X185109Y35716D01*
X185036Y35801D01*
X184967Y35888D01*
X184957Y35894D01*
X184949Y35903D01*
X184854Y35960D01*
X184760Y36021D01*
X184748Y36024D01*
X184738Y36030D01*
X184576Y36074D01*
X183041Y36317D01*
X181520Y36812D01*
X180095Y37538D01*
X178801Y38478D01*
X177670Y39609D01*
X176730Y40903D01*
X176004Y42328D01*
X175509Y43849D01*
X175259Y45428D01*
X175259Y51817D01*
X184658Y51817D01*
X184678Y51820D01*
X184697Y51818D01*
X184799Y51840D01*
X184901Y51857D01*
X184918Y51866D01*
X184938Y51870D01*
X185027Y51923D01*
X185118Y51972D01*
X185132Y51986D01*
X185149Y51996D01*
X185216Y52075D01*
X185287Y52150D01*
X185296Y52168D01*
X185309Y52183D01*
X185347Y52279D01*
X185391Y52373D01*
X185393Y52393D01*
X185401Y52411D01*
X185419Y52578D01*
X185419Y53341D01*
X185421Y53341D01*
X185421Y52578D01*
X185424Y52558D01*
X185422Y52539D01*
X185444Y52437D01*
X185461Y52335D01*
X185470Y52318D01*
X185474Y52298D01*
X185527Y52209D01*
X185576Y52118D01*
X185590Y52104D01*
X185600Y52087D01*
X185679Y52020D01*
X185754Y51949D01*
X185772Y51940D01*
X185787Y51927D01*
X185883Y51888D01*
X185977Y51845D01*
X185997Y51843D01*
X186015Y51835D01*
X186182Y51817D01*
X195581Y51817D01*
X195581Y47207D01*
X195592Y47136D01*
X195594Y47065D01*
X195612Y47016D01*
X195620Y46964D01*
X195654Y46901D01*
X195679Y46834D01*
X195711Y46793D01*
X195736Y46747D01*
X195787Y46698D01*
X195832Y46642D01*
X195876Y46614D01*
X195914Y46578D01*
X195979Y46547D01*
X196039Y46509D01*
X196090Y46496D01*
X196137Y46474D01*
X196208Y46466D01*
X196278Y46449D01*
X196330Y46453D01*
X196381Y46447D01*
X196452Y46462D01*
X196523Y46468D01*
X196571Y46488D01*
X196622Y46499D01*
X196683Y46536D01*
X196749Y46564D01*
X196805Y46609D01*
X196833Y46625D01*
X196848Y46643D01*
X196880Y46669D01*
X200436Y50225D01*
X200478Y50283D01*
X200527Y50334D01*
X200535Y50352D01*
X200549Y50368D01*
X200561Y50398D01*
X200580Y50425D01*
X200602Y50496D01*
X200630Y50558D01*
X200632Y50576D01*
X200641Y50597D01*
X200645Y50637D01*
X200652Y50660D01*
X200651Y50692D01*
X200659Y50763D01*
X200659Y62473D01*
X202206Y66208D01*
X205064Y69066D01*
X208799Y70613D01*
X212841Y70613D01*
X216576Y69066D01*
X219434Y66208D01*
X220981Y62473D01*
X220981Y59690D01*
X220984Y59670D01*
X220982Y59651D01*
X221004Y59549D01*
X221020Y59447D01*
X221030Y59430D01*
X221034Y59410D01*
X221087Y59321D01*
X221136Y59230D01*
X221150Y59216D01*
X221160Y59199D01*
X221239Y59132D01*
X221314Y59060D01*
X221332Y59052D01*
X221347Y59039D01*
X221443Y59000D01*
X221537Y58957D01*
X221557Y58955D01*
X221575Y58947D01*
X221742Y58929D01*
X231260Y58929D01*
X231280Y58932D01*
X231299Y58930D01*
X231401Y58952D01*
X231503Y58968D01*
X231520Y58978D01*
X231540Y58982D01*
X231629Y59035D01*
X231720Y59084D01*
X231734Y59098D01*
X231751Y59108D01*
X231818Y59187D01*
X231890Y59262D01*
X231898Y59280D01*
X231911Y59295D01*
X231950Y59391D01*
X231993Y59485D01*
X231995Y59505D01*
X232003Y59523D01*
X232021Y59690D01*
X232021Y61763D01*
X233220Y62962D01*
X233232Y62978D01*
X233247Y62990D01*
X233303Y63077D01*
X233364Y63161D01*
X233370Y63181D01*
X233380Y63197D01*
X233406Y63298D01*
X233436Y63397D01*
X233436Y63416D01*
X233440Y63436D01*
X233432Y63539D01*
X233430Y63642D01*
X233423Y63661D01*
X233421Y63681D01*
X233381Y63776D01*
X233345Y63873D01*
X233333Y63889D01*
X233325Y63907D01*
X233220Y64038D01*
X232630Y64628D01*
X232229Y65323D01*
X232021Y66099D01*
X232021Y71477D01*
X241808Y71477D01*
X241828Y71480D01*
X241847Y71478D01*
X241949Y71500D01*
X242051Y71517D01*
X242068Y71526D01*
X242088Y71530D01*
X242177Y71583D01*
X242268Y71632D01*
X242282Y71646D01*
X242299Y71656D01*
X242366Y71735D01*
X242437Y71810D01*
X242446Y71828D01*
X242459Y71843D01*
X242498Y71939D01*
X242541Y72033D01*
X242543Y72053D01*
X242551Y72071D01*
X242569Y72238D01*
X242569Y73001D01*
X242571Y73001D01*
X242571Y72238D01*
X242574Y72218D01*
X242572Y72199D01*
X242594Y72097D01*
X242611Y71995D01*
X242620Y71978D01*
X242624Y71958D01*
X242677Y71869D01*
X242726Y71778D01*
X242740Y71764D01*
X242750Y71747D01*
X242829Y71680D01*
X242904Y71609D01*
X242922Y71600D01*
X242937Y71587D01*
X243033Y71548D01*
X243127Y71505D01*
X243147Y71503D01*
X243165Y71495D01*
X243332Y71477D01*
X253119Y71477D01*
X253119Y66099D01*
X252911Y65323D01*
X252510Y64628D01*
X251920Y64038D01*
X251908Y64022D01*
X251893Y64010D01*
X251837Y63923D01*
X251776Y63839D01*
X251770Y63820D01*
X251760Y63803D01*
X251734Y63702D01*
X251704Y63603D01*
X251704Y63584D01*
X251700Y63564D01*
X251708Y63461D01*
X251710Y63358D01*
X251717Y63339D01*
X251719Y63319D01*
X251759Y63224D01*
X251795Y63127D01*
X251807Y63111D01*
X251815Y63093D01*
X251920Y62962D01*
X253119Y61763D01*
X253119Y61595D01*
X253122Y61575D01*
X253120Y61556D01*
X253142Y61454D01*
X253158Y61352D01*
X253168Y61335D01*
X253172Y61315D01*
X253225Y61226D01*
X253274Y61135D01*
X253288Y61121D01*
X253298Y61104D01*
X253377Y61037D01*
X253452Y60965D01*
X253470Y60957D01*
X253485Y60944D01*
X253581Y60905D01*
X253675Y60862D01*
X253695Y60860D01*
X253713Y60852D01*
X253880Y60834D01*
X283120Y60834D01*
X283210Y60848D01*
X283301Y60856D01*
X283331Y60868D01*
X283362Y60873D01*
X283443Y60916D01*
X283527Y60952D01*
X283559Y60978D01*
X283580Y60989D01*
X283602Y61012D01*
X283658Y61057D01*
X296903Y74302D01*
X296945Y74360D01*
X296994Y74412D01*
X297016Y74459D01*
X297047Y74501D01*
X297068Y74570D01*
X297098Y74635D01*
X297104Y74687D01*
X297119Y74737D01*
X297117Y74808D01*
X297125Y74879D01*
X297114Y74930D01*
X297113Y74982D01*
X297088Y75050D01*
X297073Y75120D01*
X297046Y75165D01*
X297028Y75213D01*
X296983Y75269D01*
X296947Y75331D01*
X296907Y75365D01*
X296874Y75405D01*
X296814Y75444D01*
X296760Y75491D01*
X296711Y75510D01*
X296668Y75538D01*
X296598Y75556D01*
X296532Y75583D01*
X296460Y75591D01*
X296429Y75599D01*
X296406Y75597D01*
X296365Y75601D01*
X284607Y75601D01*
X282821Y77387D01*
X282821Y99913D01*
X284607Y101699D01*
X302133Y101699D01*
X303919Y99913D01*
X303919Y85060D01*
X303930Y84989D01*
X303932Y84918D01*
X303950Y84869D01*
X303958Y84817D01*
X303992Y84754D01*
X304017Y84687D01*
X304049Y84646D01*
X304074Y84600D01*
X304125Y84551D01*
X304170Y84495D01*
X304214Y84467D01*
X304252Y84431D01*
X304317Y84400D01*
X304377Y84362D01*
X304428Y84349D01*
X304475Y84327D01*
X304546Y84319D01*
X304616Y84302D01*
X304668Y84306D01*
X304719Y84300D01*
X304790Y84315D01*
X304861Y84321D01*
X304909Y84341D01*
X304960Y84352D01*
X305021Y84389D01*
X305087Y84417D01*
X305143Y84462D01*
X305171Y84478D01*
X305186Y84496D01*
X305218Y84522D01*
X305598Y84902D01*
X305652Y84976D01*
X305711Y85045D01*
X305723Y85075D01*
X305742Y85102D01*
X305769Y85189D01*
X305803Y85274D01*
X305807Y85315D01*
X305814Y85337D01*
X305813Y85369D01*
X305821Y85440D01*
X305821Y99913D01*
X307607Y101699D01*
X319090Y101699D01*
X319161Y101710D01*
X319232Y101712D01*
X319281Y101730D01*
X319333Y101738D01*
X319396Y101772D01*
X319463Y101797D01*
X319504Y101829D01*
X319550Y101854D01*
X319599Y101905D01*
X319655Y101950D01*
X319683Y101994D01*
X319719Y102032D01*
X319749Y102097D01*
X319788Y102157D01*
X319801Y102208D01*
X319823Y102255D01*
X319831Y102326D01*
X319848Y102396D01*
X319844Y102448D01*
X319850Y102499D01*
X319835Y102570D01*
X319829Y102641D01*
X319809Y102689D01*
X319798Y102740D01*
X319761Y102801D01*
X319733Y102867D01*
X319688Y102923D01*
X319672Y102951D01*
X319654Y102966D01*
X319628Y102998D01*
X304850Y117776D01*
X304813Y117803D01*
X304782Y117837D01*
X304714Y117874D01*
X304651Y117920D01*
X304607Y117933D01*
X304566Y117955D01*
X304490Y117969D01*
X304415Y117992D01*
X304370Y117991D01*
X304324Y117999D01*
X304247Y117988D01*
X304170Y117986D01*
X304126Y117970D01*
X304081Y117963D01*
X304012Y117928D01*
X303939Y117901D01*
X303903Y117872D01*
X303862Y117852D01*
X303807Y117796D01*
X303747Y117747D01*
X303722Y117709D01*
X303690Y117676D01*
X303624Y117556D01*
X303614Y117541D01*
X303612Y117536D01*
X303609Y117529D01*
X303254Y116672D01*
X300396Y113814D01*
X296661Y112267D01*
X292619Y112267D01*
X288884Y113814D01*
X286026Y116672D01*
X284479Y120407D01*
X284479Y138673D01*
X286026Y142408D01*
X288884Y145266D01*
X292619Y146813D01*
X296661Y146813D01*
X300396Y145266D01*
X303113Y142548D01*
X303129Y142537D01*
X303142Y142521D01*
X303229Y142465D01*
X303313Y142405D01*
X303332Y142399D01*
X303349Y142388D01*
X303449Y142363D01*
X303548Y142332D01*
X303568Y142333D01*
X303587Y142328D01*
X303690Y142336D01*
X303794Y142339D01*
X303813Y142346D01*
X303832Y142347D01*
X303927Y142388D01*
X304025Y142423D01*
X304040Y142436D01*
X304059Y142444D01*
X304190Y142548D01*
X306608Y144967D01*
X306661Y145041D01*
X306721Y145110D01*
X306733Y145140D01*
X306752Y145167D01*
X306779Y145254D01*
X306813Y145339D01*
X306817Y145379D01*
X306824Y145402D01*
X306823Y145434D01*
X306831Y145505D01*
X306831Y158072D01*
X306817Y158162D01*
X306809Y158253D01*
X306797Y158283D01*
X306792Y158315D01*
X306749Y158395D01*
X306713Y158479D01*
X306687Y158511D01*
X306676Y158532D01*
X306653Y158554D01*
X306626Y158589D01*
X306625Y158590D01*
X306624Y158590D01*
X306608Y158610D01*
X304701Y160517D01*
X304701Y182245D01*
X304698Y182265D01*
X304700Y182284D01*
X304678Y182386D01*
X304662Y182488D01*
X304652Y182505D01*
X304648Y182525D01*
X304595Y182614D01*
X304546Y182705D01*
X304532Y182719D01*
X304522Y182736D01*
X304443Y182803D01*
X304368Y182875D01*
X304350Y182883D01*
X304335Y182896D01*
X304239Y182935D01*
X304145Y182978D01*
X304125Y182980D01*
X304107Y182988D01*
X303940Y183006D01*
X303560Y183006D01*
X303540Y183003D01*
X303521Y183005D01*
X303419Y182983D01*
X303317Y182967D01*
X303300Y182957D01*
X303280Y182953D01*
X303191Y182900D01*
X303100Y182851D01*
X303086Y182837D01*
X303069Y182827D01*
X303002Y182748D01*
X302930Y182673D01*
X302922Y182655D01*
X302909Y182640D01*
X302870Y182544D01*
X302827Y182450D01*
X302825Y182430D01*
X302817Y182412D01*
X302799Y182245D01*
X302799Y160517D01*
X301013Y158731D01*
X286487Y158731D01*
X284701Y160517D01*
X284701Y182245D01*
X284698Y182265D01*
X284700Y182284D01*
X284678Y182386D01*
X284662Y182488D01*
X284652Y182505D01*
X284648Y182525D01*
X284595Y182614D01*
X284546Y182705D01*
X284532Y182719D01*
X284522Y182736D01*
X284443Y182803D01*
X284368Y182875D01*
X284350Y182883D01*
X284335Y182896D01*
X284239Y182935D01*
X284145Y182978D01*
X284125Y182980D01*
X284107Y182988D01*
X283940Y183006D01*
X283560Y183006D01*
X283540Y183003D01*
X283521Y183005D01*
X283419Y182983D01*
X283317Y182967D01*
X283300Y182957D01*
X283280Y182953D01*
X283191Y182900D01*
X283100Y182851D01*
X283086Y182837D01*
X283069Y182827D01*
X283002Y182748D01*
X282930Y182673D01*
X282922Y182655D01*
X282909Y182640D01*
X282870Y182544D01*
X282827Y182450D01*
X282825Y182430D01*
X282817Y182412D01*
X282799Y182245D01*
X282799Y160517D01*
X281013Y158731D01*
X266487Y158731D01*
X264701Y160517D01*
X264701Y182245D01*
X264698Y182265D01*
X264700Y182284D01*
X264678Y182386D01*
X264662Y182488D01*
X264652Y182505D01*
X264648Y182525D01*
X264595Y182614D01*
X264546Y182705D01*
X264532Y182719D01*
X264522Y182736D01*
X264443Y182803D01*
X264368Y182875D01*
X264350Y182883D01*
X264335Y182896D01*
X264239Y182935D01*
X264145Y182978D01*
X264125Y182980D01*
X264107Y182988D01*
X263940Y183006D01*
X263560Y183006D01*
X263540Y183003D01*
X263521Y183005D01*
X263419Y182983D01*
X263317Y182967D01*
X263300Y182957D01*
X263280Y182953D01*
X263191Y182900D01*
X263100Y182851D01*
X263086Y182837D01*
X263069Y182827D01*
X263002Y182748D01*
X262930Y182673D01*
X262922Y182655D01*
X262909Y182640D01*
X262870Y182544D01*
X262827Y182450D01*
X262825Y182430D01*
X262817Y182412D01*
X262799Y182245D01*
X262799Y160517D01*
X261013Y158731D01*
X252675Y158731D01*
X252585Y158717D01*
X252494Y158709D01*
X252464Y158697D01*
X252433Y158692D01*
X252352Y158649D01*
X252268Y158613D01*
X252236Y158587D01*
X252215Y158576D01*
X252193Y158553D01*
X252137Y158508D01*
X245101Y151472D01*
X243047Y150621D01*
X223678Y150621D01*
X221624Y151472D01*
X201002Y172094D01*
X200151Y174148D01*
X200151Y315505D01*
X200137Y315595D01*
X200129Y315686D01*
X200117Y315716D01*
X200112Y315747D01*
X200069Y315828D01*
X200033Y315912D01*
X200007Y315944D01*
X199996Y315965D01*
X199973Y315987D01*
X199928Y316043D01*
X173638Y342333D01*
X173580Y342375D01*
X173528Y342424D01*
X173481Y342446D01*
X173439Y342477D01*
X173370Y342498D01*
X173305Y342528D01*
X173253Y342534D01*
X173203Y342549D01*
X173132Y342547D01*
X173061Y342555D01*
X173010Y342544D01*
X172958Y342543D01*
X172890Y342518D01*
X172820Y342503D01*
X172775Y342476D01*
X172727Y342458D01*
X172671Y342413D01*
X172609Y342377D01*
X172575Y342337D01*
X172535Y342304D01*
X172496Y342244D01*
X172449Y342190D01*
X172430Y342141D01*
X172402Y342098D01*
X172384Y342028D01*
X172357Y341962D01*
X172349Y341890D01*
X172341Y341859D01*
X172343Y341836D01*
X172339Y341795D01*
X172339Y331987D01*
X170553Y330201D01*
X152027Y330201D01*
X150241Y331987D01*
X150241Y334645D01*
X150238Y334665D01*
X150240Y334684D01*
X150218Y334786D01*
X150202Y334888D01*
X150192Y334905D01*
X150188Y334925D01*
X150135Y335014D01*
X150086Y335105D01*
X150072Y335119D01*
X150062Y335136D01*
X149983Y335203D01*
X149908Y335275D01*
X149890Y335283D01*
X149875Y335296D01*
X149779Y335335D01*
X149685Y335378D01*
X149665Y335380D01*
X149647Y335388D01*
X149480Y335406D01*
X146580Y335406D01*
X146560Y335403D01*
X146541Y335405D01*
X146439Y335383D01*
X146337Y335367D01*
X146320Y335357D01*
X146300Y335353D01*
X146211Y335300D01*
X146120Y335251D01*
X146106Y335237D01*
X146089Y335227D01*
X146022Y335148D01*
X145950Y335073D01*
X145942Y335055D01*
X145929Y335040D01*
X145890Y334944D01*
X145847Y334850D01*
X145845Y334830D01*
X145837Y334812D01*
X145819Y334645D01*
X145819Y331257D01*
X144033Y329471D01*
X131507Y329471D01*
X129721Y331257D01*
X129721Y347783D01*
X131507Y349569D01*
X144033Y349569D01*
X145819Y347783D01*
X145819Y347345D01*
X145822Y347325D01*
X145820Y347306D01*
X145842Y347204D01*
X145858Y347102D01*
X145868Y347085D01*
X145872Y347065D01*
X145925Y346976D01*
X145974Y346885D01*
X145988Y346871D01*
X145998Y346854D01*
X146077Y346787D01*
X146152Y346715D01*
X146170Y346707D01*
X146185Y346694D01*
X146281Y346655D01*
X146375Y346612D01*
X146395Y346610D01*
X146413Y346602D01*
X146580Y346584D01*
X149480Y346584D01*
X149500Y346587D01*
X149519Y346585D01*
X149621Y346607D01*
X149723Y346623D01*
X149740Y346633D01*
X149760Y346637D01*
X149849Y346690D01*
X149940Y346739D01*
X149954Y346753D01*
X149971Y346763D01*
X150038Y346842D01*
X150110Y346917D01*
X150118Y346935D01*
X150131Y346950D01*
X150170Y347046D01*
X150213Y347140D01*
X150215Y347160D01*
X150223Y347178D01*
X150241Y347345D01*
X150241Y347513D01*
X151440Y348712D01*
X151452Y348728D01*
X151467Y348740D01*
X151523Y348828D01*
X151584Y348911D01*
X151590Y348930D01*
X151600Y348947D01*
X151626Y349048D01*
X151656Y349147D01*
X151656Y349166D01*
X151660Y349186D01*
X151652Y349289D01*
X151650Y349392D01*
X151643Y349411D01*
X151641Y349431D01*
X151601Y349526D01*
X151565Y349623D01*
X151553Y349639D01*
X151545Y349657D01*
X151440Y349788D01*
X150241Y350987D01*
X150241Y366513D01*
X152027Y368299D01*
X170553Y368299D01*
X172339Y366513D01*
X172339Y359755D01*
X172353Y359665D01*
X172361Y359574D01*
X172373Y359544D01*
X172378Y359512D01*
X172421Y359432D01*
X172457Y359348D01*
X172483Y359316D01*
X172494Y359295D01*
X172517Y359273D01*
X172562Y359217D01*
X208799Y322980D01*
X210478Y321301D01*
X211329Y319247D01*
X211329Y306590D01*
X211332Y306570D01*
X211330Y306551D01*
X211352Y306449D01*
X211368Y306347D01*
X211378Y306330D01*
X211382Y306310D01*
X211435Y306221D01*
X211484Y306130D01*
X211498Y306116D01*
X211508Y306099D01*
X211587Y306032D01*
X211662Y305960D01*
X211680Y305952D01*
X211695Y305939D01*
X211791Y305900D01*
X211885Y305857D01*
X211905Y305855D01*
X211923Y305847D01*
X212090Y305829D01*
X227513Y305829D01*
X229299Y304043D01*
X229299Y289517D01*
X227513Y287731D01*
X212090Y287731D01*
X212070Y287728D01*
X212051Y287730D01*
X211949Y287708D01*
X211847Y287692D01*
X211830Y287682D01*
X211810Y287678D01*
X211721Y287625D01*
X211630Y287576D01*
X211616Y287562D01*
X211599Y287552D01*
X211532Y287473D01*
X211460Y287398D01*
X211452Y287380D01*
X211439Y287365D01*
X211400Y287269D01*
X211357Y287175D01*
X211355Y287155D01*
X211347Y287137D01*
X211329Y286970D01*
X211329Y286590D01*
X211332Y286570D01*
X211330Y286551D01*
X211352Y286449D01*
X211368Y286347D01*
X211378Y286330D01*
X211382Y286310D01*
X211435Y286221D01*
X211484Y286130D01*
X211498Y286116D01*
X211508Y286099D01*
X211587Y286032D01*
X211662Y285960D01*
X211680Y285952D01*
X211695Y285939D01*
X211791Y285900D01*
X211885Y285857D01*
X211905Y285855D01*
X211923Y285847D01*
X212090Y285829D01*
X227513Y285829D01*
X229299Y284043D01*
X229299Y269517D01*
X227513Y267731D01*
X212090Y267731D01*
X212070Y267728D01*
X212051Y267730D01*
X211949Y267708D01*
X211847Y267692D01*
X211830Y267682D01*
X211810Y267678D01*
X211721Y267625D01*
X211630Y267576D01*
X211616Y267562D01*
X211599Y267552D01*
X211532Y267473D01*
X211460Y267398D01*
X211452Y267380D01*
X211439Y267365D01*
X211400Y267269D01*
X211357Y267175D01*
X211355Y267155D01*
X211347Y267137D01*
X211329Y266970D01*
X211329Y266590D01*
X211332Y266570D01*
X211330Y266551D01*
X211352Y266449D01*
X211368Y266347D01*
X211378Y266330D01*
X211382Y266310D01*
X211435Y266221D01*
X211484Y266130D01*
X211498Y266116D01*
X211508Y266099D01*
X211587Y266032D01*
X211662Y265960D01*
X211680Y265952D01*
X211695Y265939D01*
X211791Y265900D01*
X211885Y265857D01*
X211905Y265855D01*
X211923Y265847D01*
X212090Y265829D01*
X227513Y265829D01*
X229299Y264043D01*
X229299Y249517D01*
X227513Y247731D01*
X212090Y247731D01*
X212070Y247728D01*
X212051Y247730D01*
X211949Y247708D01*
X211847Y247692D01*
X211830Y247682D01*
X211810Y247678D01*
X211721Y247625D01*
X211630Y247576D01*
X211616Y247562D01*
X211599Y247552D01*
X211532Y247473D01*
X211460Y247398D01*
X211452Y247380D01*
X211439Y247365D01*
X211400Y247269D01*
X211357Y247175D01*
X211355Y247155D01*
X211347Y247137D01*
X211329Y246970D01*
X211329Y246590D01*
X211332Y246570D01*
X211330Y246551D01*
X211352Y246449D01*
X211368Y246347D01*
X211378Y246330D01*
X211382Y246310D01*
X211435Y246221D01*
X211484Y246130D01*
X211498Y246116D01*
X211508Y246099D01*
X211587Y246032D01*
X211662Y245960D01*
X211680Y245952D01*
X211695Y245939D01*
X211791Y245900D01*
X211885Y245857D01*
X211905Y245855D01*
X211923Y245847D01*
X212090Y245829D01*
X227513Y245829D01*
X229299Y244043D01*
X229299Y229517D01*
X227513Y227731D01*
X212090Y227731D01*
X212070Y227728D01*
X212051Y227730D01*
X211949Y227708D01*
X211847Y227692D01*
X211830Y227682D01*
X211810Y227678D01*
X211721Y227625D01*
X211630Y227576D01*
X211616Y227562D01*
X211599Y227552D01*
X211532Y227473D01*
X211460Y227398D01*
X211452Y227380D01*
X211439Y227365D01*
X211400Y227269D01*
X211357Y227175D01*
X211355Y227155D01*
X211347Y227137D01*
X211329Y226970D01*
X211329Y226590D01*
X211331Y226579D01*
X211330Y226572D01*
X211331Y226565D01*
X211330Y226551D01*
X211352Y226449D01*
X211368Y226347D01*
X211378Y226330D01*
X211382Y226310D01*
X211435Y226221D01*
X211484Y226130D01*
X211498Y226116D01*
X211508Y226099D01*
X211587Y226032D01*
X211662Y225960D01*
X211680Y225952D01*
X211695Y225939D01*
X211791Y225900D01*
X211885Y225857D01*
X211905Y225855D01*
X211923Y225847D01*
X212090Y225829D01*
X227513Y225829D01*
X229299Y224043D01*
X229299Y209517D01*
X227513Y207731D01*
X212090Y207731D01*
X212070Y207728D01*
X212051Y207730D01*
X211949Y207708D01*
X211847Y207692D01*
X211830Y207682D01*
X211810Y207678D01*
X211721Y207625D01*
X211630Y207576D01*
X211616Y207562D01*
X211599Y207552D01*
X211532Y207473D01*
X211460Y207398D01*
X211452Y207380D01*
X211439Y207365D01*
X211400Y207269D01*
X211357Y207175D01*
X211355Y207155D01*
X211347Y207137D01*
X211329Y206970D01*
X211329Y206590D01*
X211332Y206570D01*
X211330Y206551D01*
X211352Y206449D01*
X211368Y206347D01*
X211378Y206330D01*
X211382Y206310D01*
X211435Y206221D01*
X211484Y206130D01*
X211498Y206116D01*
X211508Y206099D01*
X211587Y206032D01*
X211662Y205960D01*
X211680Y205952D01*
X211695Y205939D01*
X211791Y205900D01*
X211885Y205857D01*
X211905Y205855D01*
X211923Y205847D01*
X212090Y205829D01*
X227513Y205829D01*
X229299Y204043D01*
X229299Y189517D01*
X227513Y187731D01*
X212090Y187731D01*
X212070Y187728D01*
X212051Y187730D01*
X211949Y187708D01*
X211847Y187692D01*
X211830Y187682D01*
X211810Y187678D01*
X211721Y187625D01*
X211630Y187576D01*
X211616Y187562D01*
X211599Y187552D01*
X211532Y187473D01*
X211460Y187398D01*
X211452Y187380D01*
X211439Y187365D01*
X211400Y187269D01*
X211357Y187175D01*
X211355Y187155D01*
X211347Y187137D01*
X211329Y186970D01*
X211329Y177890D01*
X211332Y177871D01*
X211330Y177852D01*
X211345Y177782D01*
X211351Y177709D01*
X211363Y177679D01*
X211368Y177648D01*
X211378Y177629D01*
X211382Y177611D01*
X211417Y177552D01*
X211447Y177483D01*
X211473Y177451D01*
X211484Y177430D01*
X211499Y177415D01*
X211508Y177400D01*
X211523Y177387D01*
X211552Y177352D01*
X223402Y165502D01*
X223460Y165460D01*
X223512Y165411D01*
X223559Y165389D01*
X223601Y165358D01*
X223670Y165337D01*
X223735Y165307D01*
X223787Y165301D01*
X223837Y165286D01*
X223908Y165288D01*
X223979Y165280D01*
X224030Y165291D01*
X224082Y165292D01*
X224150Y165317D01*
X224220Y165332D01*
X224265Y165359D01*
X224313Y165377D01*
X224369Y165422D01*
X224431Y165458D01*
X224465Y165498D01*
X224505Y165531D01*
X224544Y165591D01*
X224591Y165645D01*
X224610Y165694D01*
X224638Y165737D01*
X224656Y165807D01*
X224683Y165873D01*
X224691Y165945D01*
X224699Y165976D01*
X224697Y165999D01*
X224701Y166040D01*
X224701Y183043D01*
X226487Y184829D01*
X233760Y184829D01*
X233850Y184843D01*
X233941Y184851D01*
X233971Y184863D01*
X234002Y184868D01*
X234083Y184911D01*
X234167Y184947D01*
X234199Y184973D01*
X234220Y184984D01*
X234242Y185007D01*
X234298Y185052D01*
X242579Y193333D01*
X244633Y194184D01*
X374650Y194184D01*
X374670Y194187D01*
X374689Y194185D01*
X374791Y194207D01*
X374893Y194223D01*
X374910Y194233D01*
X374930Y194237D01*
X375019Y194290D01*
X375110Y194339D01*
X375124Y194353D01*
X375141Y194363D01*
X375208Y194442D01*
X375280Y194517D01*
X375288Y194535D01*
X375301Y194550D01*
X375340Y194646D01*
X375383Y194740D01*
X375385Y194760D01*
X375393Y194778D01*
X375411Y194945D01*
X375411Y305912D01*
X376143Y307679D01*
X376154Y307723D01*
X376173Y307765D01*
X376182Y307842D01*
X376199Y307918D01*
X376195Y307964D01*
X376200Y308009D01*
X376184Y308086D01*
X376176Y308163D01*
X376158Y308205D01*
X376148Y308250D01*
X376108Y308317D01*
X376076Y308388D01*
X376045Y308422D01*
X376022Y308461D01*
X375963Y308512D01*
X375910Y308569D01*
X375870Y308591D01*
X375835Y308621D01*
X375763Y308650D01*
X375694Y308687D01*
X375649Y308696D01*
X375607Y308713D01*
X375471Y308728D01*
X375452Y308731D01*
X375447Y308730D01*
X375440Y308731D01*
X366487Y308731D01*
X364701Y310517D01*
X364701Y333043D01*
X366487Y334829D01*
X368935Y334829D01*
X368955Y334832D01*
X368974Y334830D01*
X369076Y334852D01*
X369178Y334868D01*
X369195Y334878D01*
X369215Y334882D01*
X369304Y334935D01*
X369395Y334984D01*
X369409Y334998D01*
X369426Y335008D01*
X369493Y335087D01*
X369565Y335162D01*
X369573Y335180D01*
X369586Y335195D01*
X369625Y335291D01*
X369668Y335385D01*
X369670Y335405D01*
X369678Y335423D01*
X369696Y335590D01*
X369696Y344012D01*
X370547Y346066D01*
X384369Y359888D01*
X384411Y359946D01*
X384460Y359998D01*
X384482Y360045D01*
X384513Y360087D01*
X384534Y360156D01*
X384564Y360221D01*
X384570Y360273D01*
X384585Y360323D01*
X384583Y360394D01*
X384591Y360465D01*
X384580Y360516D01*
X384579Y360568D01*
X384554Y360636D01*
X384539Y360706D01*
X384512Y360751D01*
X384494Y360799D01*
X384449Y360855D01*
X384413Y360917D01*
X384373Y360951D01*
X384340Y360991D01*
X384280Y361030D01*
X384226Y361077D01*
X384177Y361096D01*
X384134Y361124D01*
X384064Y361142D01*
X383998Y361169D01*
X383926Y361177D01*
X383895Y361185D01*
X383872Y361183D01*
X383831Y361187D01*
X382789Y361187D01*
X378961Y362773D01*
X378848Y362799D01*
X378734Y362828D01*
X378728Y362828D01*
X378722Y362829D01*
X378605Y362818D01*
X378489Y362809D01*
X378483Y362806D01*
X378477Y362806D01*
X378369Y362758D01*
X378262Y362713D01*
X378257Y362708D01*
X378252Y362706D01*
X378238Y362693D01*
X378131Y362608D01*
X360142Y344618D01*
X360089Y344544D01*
X360029Y344475D01*
X360017Y344444D01*
X359998Y344418D01*
X359971Y344331D01*
X359937Y344246D01*
X359933Y344206D01*
X359926Y344183D01*
X359927Y344151D01*
X359919Y344080D01*
X359919Y335590D01*
X359922Y335570D01*
X359920Y335551D01*
X359942Y335449D01*
X359958Y335347D01*
X359968Y335330D01*
X359972Y335310D01*
X360025Y335221D01*
X360074Y335130D01*
X360088Y335116D01*
X360098Y335099D01*
X360177Y335032D01*
X360252Y334960D01*
X360270Y334952D01*
X360285Y334939D01*
X360381Y334900D01*
X360475Y334857D01*
X360495Y334855D01*
X360513Y334847D01*
X360680Y334829D01*
X361013Y334829D01*
X362799Y333043D01*
X362799Y310517D01*
X361013Y308731D01*
X346487Y308731D01*
X344701Y310517D01*
X344701Y333043D01*
X346487Y334829D01*
X347980Y334829D01*
X348000Y334832D01*
X348019Y334830D01*
X348121Y334852D01*
X348223Y334868D01*
X348240Y334878D01*
X348260Y334882D01*
X348349Y334935D01*
X348440Y334984D01*
X348454Y334998D01*
X348471Y335008D01*
X348538Y335087D01*
X348610Y335162D01*
X348618Y335180D01*
X348631Y335195D01*
X348670Y335291D01*
X348713Y335385D01*
X348715Y335405D01*
X348723Y335423D01*
X348741Y335590D01*
X348741Y347822D01*
X349592Y349876D01*
X359604Y359888D01*
X359646Y359946D01*
X359695Y359998D01*
X359717Y360045D01*
X359748Y360087D01*
X359769Y360156D01*
X359799Y360221D01*
X359805Y360273D01*
X359820Y360323D01*
X359818Y360394D01*
X359826Y360465D01*
X359815Y360516D01*
X359814Y360568D01*
X359789Y360636D01*
X359774Y360706D01*
X359747Y360751D01*
X359729Y360799D01*
X359684Y360855D01*
X359648Y360917D01*
X359608Y360951D01*
X359575Y360991D01*
X359515Y361030D01*
X359461Y361077D01*
X359412Y361096D01*
X359369Y361124D01*
X359299Y361142D01*
X359233Y361169D01*
X359161Y361177D01*
X359130Y361185D01*
X359107Y361183D01*
X359066Y361187D01*
X357389Y361187D01*
X353654Y362734D01*
X350796Y365592D01*
X349249Y369327D01*
X349249Y383323D01*
X349238Y383394D01*
X349236Y383465D01*
X349218Y383514D01*
X349210Y383566D01*
X349176Y383629D01*
X349151Y383696D01*
X349119Y383737D01*
X349094Y383783D01*
X349042Y383832D01*
X348998Y383888D01*
X348954Y383917D01*
X348916Y383952D01*
X348851Y383982D01*
X348791Y384021D01*
X348740Y384034D01*
X348693Y384056D01*
X348622Y384064D01*
X348552Y384081D01*
X348500Y384077D01*
X348449Y384083D01*
X348378Y384068D01*
X348307Y384062D01*
X348259Y384042D01*
X348208Y384031D01*
X348147Y383994D01*
X348081Y383966D01*
X348025Y383921D01*
X347997Y383905D01*
X347982Y383887D01*
X345917Y383031D01*
X344932Y383031D01*
X344912Y383028D01*
X344893Y383030D01*
X344791Y383008D01*
X344689Y382992D01*
X344672Y382982D01*
X344652Y382978D01*
X344563Y382925D01*
X344472Y382876D01*
X344458Y382862D01*
X344441Y382852D01*
X344374Y382773D01*
X344302Y382698D01*
X344294Y382680D01*
X344281Y382665D01*
X344242Y382569D01*
X344199Y382475D01*
X344197Y382455D01*
X344189Y382437D01*
X344171Y382270D01*
X344171Y369327D01*
X342624Y365592D01*
X339766Y362734D01*
X336031Y361187D01*
X331989Y361187D01*
X328254Y362734D01*
X325396Y365592D01*
X323849Y369327D01*
X323849Y387593D01*
X324430Y388996D01*
X324457Y389110D01*
X324486Y389223D01*
X324485Y389230D01*
X324487Y389236D01*
X324476Y389352D01*
X324467Y389469D01*
X324464Y389474D01*
X324464Y389481D01*
X324416Y389588D01*
X324370Y389695D01*
X324366Y389701D01*
X324364Y389705D01*
X324351Y389719D01*
X324265Y389826D01*
X318208Y395883D01*
X318150Y395925D01*
X318098Y395974D01*
X318051Y395996D01*
X318009Y396027D01*
X317940Y396048D01*
X317875Y396078D01*
X317823Y396084D01*
X317773Y396099D01*
X317702Y396097D01*
X317631Y396105D01*
X317580Y396094D01*
X317528Y396093D01*
X317460Y396068D01*
X317390Y396053D01*
X317345Y396026D01*
X317297Y396008D01*
X317241Y395963D01*
X317179Y395927D01*
X317145Y395887D01*
X317105Y395854D01*
X317066Y395794D01*
X317019Y395740D01*
X317000Y395691D01*
X316972Y395648D01*
X316954Y395578D01*
X316927Y395512D01*
X316919Y395440D01*
X316911Y395409D01*
X316913Y395386D01*
X316909Y395345D01*
X316909Y381897D01*
X315123Y380111D01*
X309245Y380111D01*
X309225Y380108D01*
X309206Y380110D01*
X309104Y380088D01*
X309002Y380072D01*
X308985Y380062D01*
X308965Y380058D01*
X308876Y380005D01*
X308785Y379956D01*
X308771Y379942D01*
X308754Y379932D01*
X308687Y379853D01*
X308615Y379778D01*
X308607Y379760D01*
X308594Y379745D01*
X308555Y379649D01*
X308512Y379555D01*
X308510Y379535D01*
X308502Y379517D01*
X308484Y379350D01*
X308484Y357028D01*
X307633Y354974D01*
X303752Y351093D01*
X303699Y351019D01*
X303639Y350950D01*
X303627Y350919D01*
X303608Y350893D01*
X303581Y350806D01*
X303547Y350721D01*
X303543Y350681D01*
X303536Y350658D01*
X303537Y350626D01*
X303529Y350555D01*
X303529Y339987D01*
X301743Y338201D01*
X299720Y338201D01*
X299700Y338198D01*
X299681Y338200D01*
X299579Y338178D01*
X299477Y338162D01*
X299460Y338152D01*
X299440Y338148D01*
X299351Y338095D01*
X299260Y338046D01*
X299246Y338032D01*
X299229Y338022D01*
X299162Y337943D01*
X299090Y337868D01*
X299082Y337850D01*
X299069Y337835D01*
X299030Y337739D01*
X298987Y337645D01*
X298985Y337625D01*
X298977Y337607D01*
X298959Y337440D01*
X298959Y335590D01*
X298962Y335570D01*
X298960Y335551D01*
X298982Y335449D01*
X298998Y335347D01*
X299008Y335330D01*
X299012Y335310D01*
X299065Y335221D01*
X299114Y335130D01*
X299128Y335116D01*
X299138Y335099D01*
X299217Y335032D01*
X299292Y334960D01*
X299310Y334952D01*
X299325Y334939D01*
X299421Y334900D01*
X299515Y334857D01*
X299535Y334855D01*
X299553Y334847D01*
X299720Y334829D01*
X301013Y334829D01*
X302799Y333043D01*
X302799Y310517D01*
X301013Y308731D01*
X286487Y308731D01*
X284701Y310517D01*
X284701Y333043D01*
X286487Y334829D01*
X287020Y334829D01*
X287040Y334832D01*
X287059Y334830D01*
X287161Y334852D01*
X287263Y334868D01*
X287280Y334878D01*
X287300Y334882D01*
X287389Y334935D01*
X287480Y334984D01*
X287494Y334998D01*
X287511Y335008D01*
X287578Y335087D01*
X287650Y335162D01*
X287658Y335180D01*
X287671Y335195D01*
X287710Y335291D01*
X287753Y335385D01*
X287755Y335405D01*
X287763Y335423D01*
X287781Y335590D01*
X287781Y337440D01*
X287778Y337460D01*
X287780Y337479D01*
X287758Y337581D01*
X287742Y337683D01*
X287732Y337700D01*
X287728Y337720D01*
X287675Y337809D01*
X287626Y337900D01*
X287612Y337914D01*
X287602Y337931D01*
X287523Y337998D01*
X287448Y338070D01*
X287430Y338078D01*
X287415Y338091D01*
X287319Y338130D01*
X287225Y338173D01*
X287205Y338175D01*
X287187Y338183D01*
X287020Y338201D01*
X286217Y338201D01*
X285018Y339400D01*
X285002Y339412D01*
X284990Y339427D01*
X284902Y339483D01*
X284819Y339544D01*
X284800Y339550D01*
X284783Y339560D01*
X284682Y339586D01*
X284583Y339616D01*
X284564Y339616D01*
X284544Y339620D01*
X284441Y339612D01*
X284338Y339610D01*
X284319Y339603D01*
X284299Y339601D01*
X284204Y339561D01*
X284107Y339525D01*
X284091Y339513D01*
X284073Y339505D01*
X283942Y339400D01*
X282743Y338201D01*
X267217Y338201D01*
X265431Y339987D01*
X265431Y341962D01*
X265420Y342033D01*
X265418Y342104D01*
X265400Y342153D01*
X265392Y342205D01*
X265358Y342268D01*
X265333Y342335D01*
X265301Y342376D01*
X265276Y342422D01*
X265224Y342471D01*
X265180Y342527D01*
X265136Y342556D01*
X265098Y342591D01*
X265033Y342622D01*
X264973Y342660D01*
X264922Y342673D01*
X264875Y342695D01*
X264804Y342703D01*
X264734Y342720D01*
X264682Y342716D01*
X264631Y342722D01*
X264560Y342707D01*
X264489Y342701D01*
X264441Y342681D01*
X264390Y342670D01*
X264329Y342633D01*
X264263Y342605D01*
X264207Y342560D01*
X264179Y342544D01*
X264164Y342526D01*
X264132Y342500D01*
X262373Y340741D01*
X261620Y340741D01*
X261600Y340738D01*
X261581Y340740D01*
X261479Y340718D01*
X261377Y340702D01*
X261360Y340692D01*
X261340Y340688D01*
X261251Y340635D01*
X261160Y340586D01*
X261146Y340572D01*
X261129Y340562D01*
X261062Y340483D01*
X260990Y340408D01*
X260982Y340390D01*
X260969Y340375D01*
X260930Y340279D01*
X260887Y340185D01*
X260885Y340165D01*
X260877Y340147D01*
X260859Y339980D01*
X260859Y335298D01*
X260873Y335208D01*
X260881Y335117D01*
X260893Y335087D01*
X260898Y335055D01*
X260941Y334975D01*
X260977Y334891D01*
X261003Y334859D01*
X261014Y334838D01*
X261037Y334816D01*
X261082Y334760D01*
X262799Y333043D01*
X262799Y310517D01*
X261013Y308731D01*
X246487Y308731D01*
X244701Y310517D01*
X244701Y333043D01*
X246487Y334829D01*
X248920Y334829D01*
X248940Y334832D01*
X248959Y334830D01*
X249061Y334852D01*
X249163Y334868D01*
X249180Y334878D01*
X249200Y334882D01*
X249289Y334935D01*
X249380Y334984D01*
X249394Y334998D01*
X249411Y335008D01*
X249478Y335087D01*
X249550Y335162D01*
X249558Y335180D01*
X249571Y335195D01*
X249610Y335291D01*
X249653Y335385D01*
X249655Y335405D01*
X249663Y335423D01*
X249681Y335590D01*
X249681Y339980D01*
X249678Y340000D01*
X249680Y340019D01*
X249658Y340121D01*
X249642Y340223D01*
X249632Y340240D01*
X249628Y340260D01*
X249575Y340349D01*
X249526Y340440D01*
X249512Y340454D01*
X249502Y340471D01*
X249423Y340538D01*
X249348Y340610D01*
X249330Y340618D01*
X249315Y340631D01*
X249219Y340670D01*
X249125Y340713D01*
X249105Y340715D01*
X249087Y340723D01*
X248920Y340741D01*
X246847Y340741D01*
X245648Y341940D01*
X245632Y341952D01*
X245620Y341967D01*
X245533Y342023D01*
X245449Y342084D01*
X245429Y342090D01*
X245413Y342100D01*
X245312Y342126D01*
X245213Y342156D01*
X245194Y342156D01*
X245174Y342160D01*
X245071Y342152D01*
X244968Y342150D01*
X244949Y342143D01*
X244929Y342141D01*
X244834Y342101D01*
X244737Y342065D01*
X244721Y342053D01*
X244703Y342045D01*
X244572Y341940D01*
X243982Y341350D01*
X243287Y340949D01*
X242511Y340741D01*
X237133Y340741D01*
X237133Y351028D01*
X237130Y351048D01*
X237132Y351067D01*
X237110Y351169D01*
X237093Y351271D01*
X237084Y351288D01*
X237080Y351308D01*
X237027Y351397D01*
X236978Y351488D01*
X236964Y351502D01*
X236954Y351519D01*
X236875Y351586D01*
X236800Y351657D01*
X236782Y351666D01*
X236767Y351679D01*
X236671Y351718D01*
X236577Y351761D01*
X236557Y351763D01*
X236539Y351771D01*
X236372Y351789D01*
X235609Y351789D01*
X235609Y351791D01*
X236372Y351791D01*
X236392Y351794D01*
X236411Y351792D01*
X236513Y351814D01*
X236615Y351831D01*
X236632Y351840D01*
X236652Y351844D01*
X236741Y351897D01*
X236832Y351946D01*
X236846Y351960D01*
X236863Y351970D01*
X236930Y352049D01*
X237001Y352124D01*
X237010Y352142D01*
X237023Y352157D01*
X237062Y352253D01*
X237105Y352347D01*
X237107Y352367D01*
X237115Y352385D01*
X237133Y352552D01*
X237133Y362839D01*
X242511Y362839D01*
X242583Y362820D01*
X242631Y362815D01*
X242676Y362801D01*
X242752Y362803D01*
X242828Y362795D01*
X242874Y362806D01*
X242922Y362807D01*
X242994Y362833D01*
X243067Y362850D01*
X243108Y362875D01*
X243153Y362892D01*
X243212Y362939D01*
X243277Y362978D01*
X243308Y363015D01*
X243345Y363045D01*
X243386Y363109D01*
X243435Y363167D01*
X243452Y363212D01*
X243478Y363252D01*
X243497Y363326D01*
X243524Y363396D01*
X243527Y363444D01*
X243538Y363491D01*
X243533Y363566D01*
X243536Y363642D01*
X243523Y363688D01*
X243519Y363736D01*
X243490Y363806D01*
X243469Y363879D01*
X243442Y363918D01*
X243423Y363962D01*
X243342Y364063D01*
X243330Y364081D01*
X243324Y364085D01*
X243318Y364093D01*
X232223Y375188D01*
X232149Y375241D01*
X232080Y375301D01*
X232049Y375313D01*
X232023Y375332D01*
X231936Y375359D01*
X231851Y375393D01*
X231811Y375397D01*
X231788Y375404D01*
X231756Y375403D01*
X231685Y375411D01*
X224280Y375411D01*
X224260Y375408D01*
X224241Y375410D01*
X224139Y375388D01*
X224037Y375372D01*
X224020Y375362D01*
X224000Y375358D01*
X223911Y375305D01*
X223820Y375256D01*
X223806Y375242D01*
X223789Y375232D01*
X223722Y375153D01*
X223650Y375078D01*
X223642Y375060D01*
X223629Y375045D01*
X223590Y374949D01*
X223547Y374855D01*
X223545Y374835D01*
X223537Y374817D01*
X223519Y374650D01*
X223519Y372237D01*
X221733Y370451D01*
X206207Y370451D01*
X205008Y371650D01*
X204992Y371662D01*
X204980Y371677D01*
X204892Y371733D01*
X204809Y371794D01*
X204790Y371800D01*
X204773Y371810D01*
X204672Y371836D01*
X204573Y371866D01*
X204554Y371866D01*
X204534Y371870D01*
X204431Y371862D01*
X204328Y371860D01*
X204309Y371853D01*
X204289Y371851D01*
X204194Y371811D01*
X204097Y371775D01*
X204081Y371763D01*
X204063Y371755D01*
X203932Y371650D01*
X203342Y371060D01*
X202647Y370659D01*
X201871Y370451D01*
X196493Y370451D01*
X196493Y380238D01*
X196490Y380258D01*
X196492Y380277D01*
X196470Y380379D01*
X196453Y380481D01*
X196444Y380498D01*
X196440Y380518D01*
X196387Y380607D01*
X196338Y380698D01*
X196324Y380712D01*
X196314Y380729D01*
X196235Y380796D01*
X196160Y380867D01*
X196142Y380876D01*
X196127Y380889D01*
X196031Y380928D01*
X195937Y380971D01*
X195917Y380973D01*
X195899Y380981D01*
X195732Y380999D01*
X194969Y380999D01*
X194969Y381001D01*
X195732Y381001D01*
X195752Y381004D01*
X195771Y381002D01*
X195873Y381024D01*
X195975Y381041D01*
X195992Y381050D01*
X196012Y381054D01*
X196101Y381107D01*
X196192Y381156D01*
X196206Y381170D01*
X196223Y381180D01*
X196290Y381259D01*
X196361Y381334D01*
X196370Y381352D01*
X196383Y381367D01*
X196422Y381463D01*
X196465Y381557D01*
X196467Y381577D01*
X196475Y381595D01*
X196493Y381762D01*
X196493Y391549D01*
X201871Y391549D01*
X202647Y391341D01*
X203342Y390940D01*
X203932Y390350D01*
X203948Y390338D01*
X203960Y390323D01*
X204048Y390267D01*
X204131Y390206D01*
X204150Y390200D01*
X204167Y390190D01*
X204268Y390164D01*
X204367Y390134D01*
X204386Y390134D01*
X204406Y390130D01*
X204509Y390138D01*
X204612Y390140D01*
X204631Y390147D01*
X204651Y390149D01*
X204746Y390189D01*
X204843Y390225D01*
X204859Y390237D01*
X204877Y390245D01*
X205008Y390350D01*
X206207Y391549D01*
X221733Y391549D01*
X223519Y389763D01*
X223519Y387350D01*
X223522Y387330D01*
X223520Y387311D01*
X223542Y387209D01*
X223558Y387107D01*
X223568Y387090D01*
X223572Y387070D01*
X223625Y386981D01*
X223674Y386890D01*
X223688Y386876D01*
X223698Y386859D01*
X223777Y386792D01*
X223852Y386720D01*
X223870Y386712D01*
X223885Y386699D01*
X223981Y386660D01*
X224075Y386617D01*
X224095Y386615D01*
X224113Y386607D01*
X224280Y386589D01*
X235427Y386589D01*
X235759Y386451D01*
X235803Y386441D01*
X235845Y386421D01*
X235922Y386413D01*
X235998Y386395D01*
X236044Y386399D01*
X236089Y386394D01*
X236166Y386411D01*
X236243Y386418D01*
X236285Y386437D01*
X236330Y386447D01*
X236397Y386486D01*
X236468Y386518D01*
X236502Y386549D01*
X236541Y386573D01*
X236592Y386632D01*
X236649Y386684D01*
X236671Y386725D01*
X236701Y386760D01*
X236730Y386832D01*
X236767Y386900D01*
X236776Y386945D01*
X236793Y386988D01*
X236808Y387124D01*
X236811Y387142D01*
X236810Y387147D01*
X236811Y387154D01*
X236811Y389637D01*
X248337Y389637D01*
X248337Y380111D01*
X244945Y380111D01*
X244874Y380100D01*
X244803Y380098D01*
X244754Y380080D01*
X244702Y380072D01*
X244639Y380038D01*
X244572Y380013D01*
X244531Y379981D01*
X244485Y379956D01*
X244436Y379904D01*
X244380Y379860D01*
X244352Y379816D01*
X244316Y379778D01*
X244286Y379713D01*
X244247Y379653D01*
X244234Y379602D01*
X244212Y379555D01*
X244204Y379484D01*
X244187Y379414D01*
X244191Y379362D01*
X244185Y379311D01*
X244200Y379240D01*
X244206Y379169D01*
X244226Y379121D01*
X244237Y379070D01*
X244274Y379009D01*
X244302Y378943D01*
X244347Y378887D01*
X244363Y378859D01*
X244381Y378844D01*
X244407Y378812D01*
X251647Y371572D01*
X251721Y371519D01*
X251790Y371459D01*
X251821Y371447D01*
X251847Y371428D01*
X251934Y371401D01*
X252019Y371367D01*
X252059Y371363D01*
X252082Y371356D01*
X252114Y371357D01*
X252185Y371349D01*
X256540Y371349D01*
X256560Y371352D01*
X256579Y371350D01*
X256681Y371372D01*
X256783Y371388D01*
X256800Y371398D01*
X256820Y371402D01*
X256909Y371455D01*
X257000Y371504D01*
X257014Y371518D01*
X257031Y371528D01*
X257098Y371607D01*
X257170Y371682D01*
X257178Y371700D01*
X257191Y371715D01*
X257230Y371811D01*
X257273Y371905D01*
X257275Y371925D01*
X257283Y371943D01*
X257301Y372110D01*
X257301Y378302D01*
X257615Y379059D01*
X257625Y379103D01*
X257645Y379145D01*
X257653Y379222D01*
X257671Y379298D01*
X257667Y379344D01*
X257672Y379389D01*
X257655Y379466D01*
X257648Y379543D01*
X257629Y379585D01*
X257620Y379630D01*
X257580Y379697D01*
X257548Y379768D01*
X257517Y379802D01*
X257493Y379841D01*
X257434Y379892D01*
X257382Y379949D01*
X257341Y379971D01*
X257306Y380001D01*
X257234Y380030D01*
X257166Y380067D01*
X257121Y380076D01*
X257078Y380093D01*
X256942Y380108D01*
X256924Y380111D01*
X256919Y380110D01*
X256912Y380111D01*
X251383Y380111D01*
X251383Y389637D01*
X262909Y389637D01*
X262909Y386950D01*
X262920Y386879D01*
X262922Y386808D01*
X262940Y386759D01*
X262948Y386707D01*
X262982Y386644D01*
X263007Y386577D01*
X263039Y386536D01*
X263064Y386490D01*
X263116Y386441D01*
X263160Y386385D01*
X263204Y386357D01*
X263242Y386321D01*
X263307Y386291D01*
X263367Y386252D01*
X263418Y386239D01*
X263465Y386217D01*
X263536Y386209D01*
X263606Y386192D01*
X263658Y386196D01*
X263709Y386190D01*
X263780Y386205D01*
X263851Y386211D01*
X263899Y386231D01*
X263950Y386242D01*
X264011Y386279D01*
X264077Y386307D01*
X264133Y386352D01*
X264161Y386368D01*
X264176Y386386D01*
X264208Y386412D01*
X288299Y410503D01*
X290353Y411354D01*
X317342Y411354D01*
X319396Y410503D01*
X333943Y395956D01*
X334017Y395903D01*
X334086Y395843D01*
X334117Y395831D01*
X334143Y395812D01*
X334230Y395785D01*
X334315Y395751D01*
X334355Y395747D01*
X334378Y395740D01*
X334410Y395741D01*
X334481Y395733D01*
X336031Y395733D01*
X339570Y394267D01*
X339634Y394252D01*
X339695Y394227D01*
X339778Y394218D01*
X339810Y394211D01*
X339829Y394212D01*
X339862Y394209D01*
X342175Y394209D01*
X342265Y394223D01*
X342356Y394231D01*
X342386Y394243D01*
X342417Y394248D01*
X342498Y394291D01*
X342582Y394327D01*
X342614Y394353D01*
X342635Y394364D01*
X342657Y394387D01*
X342713Y394432D01*
X351164Y402883D01*
X353218Y403734D01*
X424022Y403734D01*
X426076Y402883D01*
X427648Y401311D01*
X428499Y399257D01*
X428499Y394459D01*
X428501Y394447D01*
X428499Y394435D01*
X428520Y394326D01*
X428538Y394216D01*
X428544Y394205D01*
X428546Y394194D01*
X428601Y394097D01*
X428654Y393999D01*
X428662Y393990D01*
X428668Y393980D01*
X428751Y393906D01*
X428832Y393829D01*
X428843Y393824D01*
X428852Y393816D01*
X428954Y393773D01*
X429055Y393726D01*
X429067Y393724D01*
X429078Y393720D01*
X429189Y393711D01*
X429299Y393699D01*
X429311Y393701D01*
X429323Y393700D01*
X429431Y393727D01*
X429540Y393751D01*
X429550Y393757D01*
X429562Y393760D01*
X429707Y393843D01*
X430285Y394262D01*
X431710Y394988D01*
X433231Y395483D01*
X434087Y395618D01*
X434087Y379222D01*
X434090Y379202D01*
X434088Y379183D01*
X434110Y379081D01*
X434127Y378979D01*
X434136Y378962D01*
X434140Y378942D01*
X434193Y378853D01*
X434242Y378762D01*
X434256Y378748D01*
X434266Y378731D01*
X434345Y378664D01*
X434420Y378593D01*
X434438Y378584D01*
X434453Y378571D01*
X434549Y378533D01*
X434643Y378489D01*
X434663Y378487D01*
X434681Y378479D01*
X434848Y378461D01*
X436372Y378461D01*
X436392Y378464D01*
X436411Y378462D01*
X436513Y378484D01*
X436615Y378501D01*
X436632Y378510D01*
X436652Y378514D01*
X436741Y378567D01*
X436832Y378616D01*
X436846Y378630D01*
X436863Y378640D01*
X436930Y378719D01*
X437001Y378794D01*
X437010Y378812D01*
X437023Y378827D01*
X437062Y378923D01*
X437105Y379017D01*
X437107Y379037D01*
X437115Y379055D01*
X437133Y379222D01*
X437133Y395618D01*
X437989Y395483D01*
X439510Y394988D01*
X440935Y394262D01*
X442229Y393322D01*
X443360Y392191D01*
X443884Y391470D01*
X443890Y391464D01*
X443894Y391457D01*
X443977Y391378D01*
X444059Y391297D01*
X444066Y391294D01*
X444072Y391288D01*
X444176Y391240D01*
X444280Y391189D01*
X444288Y391188D01*
X444295Y391184D01*
X444409Y391172D01*
X444524Y391157D01*
X444532Y391158D01*
X444539Y391157D01*
X444652Y391182D01*
X444765Y391204D01*
X444772Y391208D01*
X444780Y391210D01*
X444878Y391268D01*
X444979Y391326D01*
X444984Y391332D01*
X444991Y391336D01*
X445066Y391423D01*
X445143Y391509D01*
X445146Y391517D01*
X445151Y391523D01*
X445194Y391629D01*
X445239Y391735D01*
X445240Y391743D01*
X445243Y391751D01*
X445261Y391918D01*
X445261Y429078D01*
X445258Y429098D01*
X445260Y429117D01*
X445238Y429219D01*
X445222Y429321D01*
X445212Y429338D01*
X445208Y429358D01*
X445155Y429447D01*
X445106Y429538D01*
X445092Y429552D01*
X445082Y429569D01*
X445003Y429636D01*
X444928Y429708D01*
X444910Y429716D01*
X444895Y429729D01*
X444799Y429768D01*
X444705Y429811D01*
X444685Y429813D01*
X444667Y429821D01*
X444500Y429839D01*
X12700Y429839D01*
X12680Y429836D01*
X12661Y429838D01*
X12559Y429816D01*
X12457Y429800D01*
X12440Y429790D01*
X12420Y429786D01*
X12331Y429733D01*
X12240Y429684D01*
X12226Y429670D01*
X12209Y429660D01*
X12142Y429581D01*
X12071Y429506D01*
X12062Y429488D01*
X12049Y429473D01*
X12010Y429377D01*
X11967Y429283D01*
X11965Y429263D01*
X11957Y429245D01*
X11939Y429078D01*
X11939Y164083D01*
X11954Y163987D01*
X11964Y163890D01*
X11974Y163866D01*
X11979Y163840D01*
X12024Y163754D01*
X12064Y163665D01*
X12081Y163646D01*
X12094Y163623D01*
X12164Y163555D01*
X12230Y163484D01*
X12253Y163471D01*
X12272Y163453D01*
X12360Y163412D01*
X12446Y163365D01*
X12471Y163361D01*
X12495Y163350D01*
X12592Y163339D01*
X12688Y163321D01*
X12714Y163325D01*
X12739Y163322D01*
X12835Y163343D01*
X12931Y163357D01*
X12954Y163369D01*
X12980Y163375D01*
X13063Y163425D01*
X13150Y163469D01*
X13169Y163487D01*
X13191Y163501D01*
X13254Y163575D01*
X13322Y163644D01*
X13338Y163673D01*
X13351Y163688D01*
X13363Y163718D01*
X13403Y163791D01*
X14782Y167120D01*
X16032Y168370D01*
X16085Y168444D01*
X16145Y168514D01*
X16157Y168544D01*
X16176Y168570D01*
X16203Y168657D01*
X16237Y168742D01*
X16241Y168783D01*
X16248Y168805D01*
X16247Y168837D01*
X16255Y168909D01*
X16255Y169963D01*
X18228Y174724D01*
X21872Y178368D01*
X26633Y180341D01*
X28993Y180341D01*
X29064Y180352D01*
X29135Y180354D01*
X29184Y180372D01*
X29236Y180380D01*
X29299Y180414D01*
X29366Y180439D01*
X29407Y180471D01*
X29453Y180496D01*
X29502Y180548D01*
X29558Y180592D01*
X29586Y180636D01*
X29622Y180674D01*
X29652Y180739D01*
X29691Y180799D01*
X29704Y180850D01*
X29726Y180897D01*
X29734Y180968D01*
X29751Y181038D01*
X29747Y181090D01*
X29753Y181141D01*
X29738Y181212D01*
X29732Y181283D01*
X29712Y181331D01*
X29701Y181382D01*
X29664Y181443D01*
X29636Y181509D01*
X29591Y181565D01*
X29575Y181593D01*
X29557Y181608D01*
X29531Y181640D01*
X25742Y185429D01*
X24891Y187483D01*
X24891Y256752D01*
X24872Y256867D01*
X24855Y256983D01*
X24853Y256989D01*
X24852Y256995D01*
X24797Y257098D01*
X24744Y257202D01*
X24739Y257207D01*
X24736Y257212D01*
X24652Y257292D01*
X24568Y257375D01*
X24562Y257378D01*
X24558Y257382D01*
X24541Y257389D01*
X24421Y257455D01*
X21872Y258512D01*
X18228Y262156D01*
X16255Y266917D01*
X16255Y291883D01*
X18228Y296644D01*
X21872Y300288D01*
X26633Y302261D01*
X31787Y302261D01*
X36548Y300288D01*
X38832Y298005D01*
X38890Y297963D01*
X38942Y297914D01*
X38989Y297892D01*
X39031Y297861D01*
X39100Y297840D01*
X39165Y297810D01*
X39217Y297804D01*
X39267Y297789D01*
X39338Y297791D01*
X39409Y297783D01*
X39460Y297794D01*
X39512Y297795D01*
X39580Y297820D01*
X39650Y297835D01*
X39695Y297862D01*
X39743Y297880D01*
X39799Y297925D01*
X39861Y297962D01*
X39895Y298001D01*
X39935Y298034D01*
X39974Y298094D01*
X40021Y298148D01*
X40040Y298197D01*
X40068Y298241D01*
X40086Y298310D01*
X40113Y298377D01*
X40121Y298448D01*
X40129Y298479D01*
X40127Y298502D01*
X40131Y298543D01*
X40131Y334710D01*
X40128Y334729D01*
X40130Y334748D01*
X40130Y334749D01*
X40108Y334851D01*
X40092Y334953D01*
X40082Y334970D01*
X40078Y334990D01*
X40025Y335079D01*
X39976Y335170D01*
X39962Y335184D01*
X39952Y335201D01*
X39873Y335268D01*
X39798Y335340D01*
X39780Y335348D01*
X39765Y335361D01*
X39669Y335400D01*
X39575Y335443D01*
X39555Y335445D01*
X39537Y335453D01*
X39370Y335471D01*
X36797Y335471D01*
X35011Y337257D01*
X35011Y363783D01*
X36797Y365569D01*
X57323Y365569D01*
X59109Y363783D01*
X59109Y337257D01*
X57323Y335471D01*
X52070Y335471D01*
X52050Y335468D01*
X52031Y335470D01*
X51929Y335448D01*
X51827Y335432D01*
X51810Y335422D01*
X51790Y335418D01*
X51701Y335365D01*
X51610Y335316D01*
X51596Y335302D01*
X51579Y335292D01*
X51512Y335213D01*
X51440Y335138D01*
X51432Y335120D01*
X51419Y335105D01*
X51380Y335009D01*
X51337Y334915D01*
X51335Y334895D01*
X51327Y334877D01*
X51309Y334710D01*
X51309Y294163D01*
X50458Y292109D01*
X42388Y284039D01*
X42335Y283965D01*
X42275Y283896D01*
X42263Y283865D01*
X42244Y283839D01*
X42217Y283752D01*
X42183Y283667D01*
X42179Y283627D01*
X42172Y283604D01*
X42173Y283572D01*
X42165Y283501D01*
X42165Y266917D01*
X40192Y262156D01*
X36548Y258512D01*
X36539Y258508D01*
X36439Y258446D01*
X36339Y258386D01*
X36335Y258381D01*
X36330Y258378D01*
X36255Y258288D01*
X36179Y258199D01*
X36177Y258193D01*
X36173Y258189D01*
X36131Y258079D01*
X36087Y257971D01*
X36086Y257964D01*
X36085Y257959D01*
X36084Y257940D01*
X36069Y257804D01*
X36069Y191225D01*
X36083Y191135D01*
X36091Y191044D01*
X36103Y191014D01*
X36108Y190983D01*
X36151Y190902D01*
X36187Y190818D01*
X36213Y190786D01*
X36224Y190765D01*
X36247Y190743D01*
X36292Y190687D01*
X71217Y155762D01*
X71275Y155720D01*
X71327Y155671D01*
X71374Y155649D01*
X71416Y155618D01*
X71485Y155597D01*
X71550Y155567D01*
X71602Y155561D01*
X71652Y155546D01*
X71723Y155548D01*
X71794Y155540D01*
X71845Y155551D01*
X71897Y155552D01*
X71965Y155577D01*
X72035Y155592D01*
X72080Y155619D01*
X72128Y155637D01*
X72184Y155682D01*
X72246Y155718D01*
X72280Y155758D01*
X72320Y155791D01*
X72359Y155851D01*
X72406Y155905D01*
X72425Y155954D01*
X72453Y155997D01*
X72471Y156067D01*
X72498Y156133D01*
X72506Y156205D01*
X72514Y156236D01*
X72512Y156259D01*
X72516Y156300D01*
X72516Y294650D01*
X72506Y294715D01*
X72505Y294781D01*
X72482Y294861D01*
X72477Y294893D01*
X72467Y294910D01*
X72458Y294942D01*
X71881Y296335D01*
X71881Y303105D01*
X74472Y309360D01*
X75722Y310610D01*
X75770Y310677D01*
X75775Y310682D01*
X75777Y310686D01*
X75835Y310754D01*
X75847Y310784D01*
X75866Y310810D01*
X75893Y310897D01*
X75927Y310982D01*
X75931Y311023D01*
X75938Y311045D01*
X75937Y311077D01*
X75945Y311149D01*
X75945Y312203D01*
X77918Y316964D01*
X81562Y320608D01*
X86323Y322581D01*
X91477Y322581D01*
X96238Y320608D01*
X99882Y316964D01*
X101855Y312203D01*
X101855Y311149D01*
X101869Y311059D01*
X101877Y310968D01*
X101889Y310938D01*
X101894Y310906D01*
X101937Y310825D01*
X101973Y310741D01*
X101999Y310709D01*
X102010Y310689D01*
X102033Y310666D01*
X102078Y310610D01*
X103963Y308725D01*
X106554Y302470D01*
X106554Y49396D01*
X106565Y49326D01*
X106567Y49255D01*
X106588Y49185D01*
X106593Y49153D01*
X106604Y49133D01*
X106616Y49094D01*
X107136Y47891D01*
X107238Y41122D01*
X104741Y34828D01*
X101747Y31742D01*
X101713Y31693D01*
X101671Y31650D01*
X101625Y31567D01*
X101606Y31540D01*
X101602Y31525D01*
X101590Y31503D01*
X100345Y28498D01*
X99690Y27843D01*
X99649Y27785D01*
X99599Y27733D01*
X99577Y27686D01*
X99547Y27644D01*
X99526Y27575D01*
X99496Y27510D01*
X99490Y27458D01*
X99475Y27408D01*
X99476Y27337D01*
X99469Y27266D01*
X99480Y27215D01*
X99481Y27163D01*
X99506Y27095D01*
X99521Y27025D01*
X99548Y26980D01*
X99565Y26932D01*
X99610Y26876D01*
X99647Y26814D01*
X99687Y26780D01*
X99719Y26740D01*
X99779Y26701D01*
X99834Y26654D01*
X99882Y26635D01*
X99926Y26607D01*
X99996Y26589D01*
X100062Y26562D01*
X100133Y26554D01*
X100165Y26546D01*
X100188Y26548D01*
X100229Y26544D01*
X130111Y26544D01*
X130182Y26555D01*
G37*
G36*
X272003Y11950D02*
X272003Y11950D01*
X272074Y11952D01*
X272123Y11970D01*
X272175Y11979D01*
X272238Y12012D01*
X272305Y12037D01*
X272346Y12069D01*
X272392Y12094D01*
X272441Y12146D01*
X272497Y12190D01*
X272526Y12234D01*
X272561Y12272D01*
X272592Y12337D01*
X272630Y12397D01*
X272643Y12448D01*
X272665Y12495D01*
X272673Y12566D01*
X272690Y12636D01*
X272686Y12688D01*
X272692Y12739D01*
X272677Y12810D01*
X272671Y12881D01*
X272651Y12929D01*
X272640Y12980D01*
X272603Y13041D01*
X272575Y13107D01*
X272530Y13163D01*
X272514Y13191D01*
X272496Y13206D01*
X272470Y13238D01*
X271321Y14387D01*
X271321Y36913D01*
X273107Y38699D01*
X313633Y38699D01*
X315419Y36913D01*
X315419Y33020D01*
X315422Y33000D01*
X315420Y32981D01*
X315442Y32879D01*
X315458Y32777D01*
X315468Y32760D01*
X315472Y32740D01*
X315525Y32651D01*
X315574Y32560D01*
X315588Y32546D01*
X315598Y32529D01*
X315677Y32462D01*
X315752Y32390D01*
X315770Y32382D01*
X315785Y32369D01*
X315881Y32330D01*
X315975Y32287D01*
X315995Y32285D01*
X316013Y32277D01*
X316180Y32259D01*
X382042Y32259D01*
X382132Y32273D01*
X382223Y32281D01*
X382253Y32293D01*
X382285Y32298D01*
X382365Y32341D01*
X382449Y32377D01*
X382481Y32403D01*
X382502Y32414D01*
X382524Y32437D01*
X382580Y32482D01*
X383850Y33752D01*
X383862Y33768D01*
X383877Y33780D01*
X383933Y33868D01*
X383994Y33951D01*
X384000Y33970D01*
X384010Y33987D01*
X384036Y34088D01*
X384066Y34187D01*
X384066Y34206D01*
X384070Y34226D01*
X384062Y34329D01*
X384060Y34432D01*
X384053Y34451D01*
X384051Y34471D01*
X384011Y34566D01*
X383975Y34663D01*
X383963Y34679D01*
X383955Y34697D01*
X383850Y34828D01*
X382651Y36027D01*
X382651Y39660D01*
X382637Y39750D01*
X382629Y39841D01*
X382617Y39871D01*
X382612Y39903D01*
X382569Y39983D01*
X382533Y40067D01*
X382507Y40099D01*
X382496Y40120D01*
X382473Y40142D01*
X382428Y40198D01*
X328218Y94408D01*
X328160Y94450D01*
X328108Y94499D01*
X328061Y94521D01*
X328019Y94552D01*
X327950Y94573D01*
X327885Y94603D01*
X327833Y94609D01*
X327783Y94624D01*
X327712Y94622D01*
X327641Y94630D01*
X327590Y94619D01*
X327538Y94618D01*
X327470Y94593D01*
X327400Y94578D01*
X327356Y94551D01*
X327307Y94533D01*
X327251Y94488D01*
X327189Y94452D01*
X327155Y94412D01*
X327115Y94379D01*
X327076Y94319D01*
X327029Y94265D01*
X327010Y94216D01*
X326982Y94173D01*
X326964Y94103D01*
X326937Y94037D01*
X326929Y93965D01*
X326921Y93934D01*
X326923Y93911D01*
X326919Y93870D01*
X326919Y77387D01*
X325133Y75601D01*
X313015Y75601D01*
X312900Y75582D01*
X312784Y75565D01*
X312778Y75563D01*
X312772Y75562D01*
X312669Y75507D01*
X312565Y75454D01*
X312560Y75449D01*
X312555Y75446D01*
X312475Y75362D01*
X312392Y75278D01*
X312389Y75272D01*
X312385Y75268D01*
X312378Y75251D01*
X312312Y75131D01*
X311443Y73034D01*
X288916Y50507D01*
X286862Y49656D01*
X253880Y49656D01*
X253860Y49653D01*
X253841Y49655D01*
X253739Y49633D01*
X253637Y49617D01*
X253620Y49607D01*
X253600Y49603D01*
X253511Y49550D01*
X253420Y49501D01*
X253406Y49487D01*
X253389Y49477D01*
X253322Y49398D01*
X253250Y49323D01*
X253242Y49305D01*
X253229Y49290D01*
X253190Y49194D01*
X253147Y49100D01*
X253145Y49080D01*
X253137Y49062D01*
X253119Y48895D01*
X253119Y46237D01*
X251333Y44451D01*
X233807Y44451D01*
X232021Y46237D01*
X232021Y46990D01*
X232018Y47010D01*
X232020Y47029D01*
X231998Y47131D01*
X231982Y47233D01*
X231972Y47250D01*
X231968Y47270D01*
X231915Y47359D01*
X231866Y47450D01*
X231852Y47464D01*
X231842Y47481D01*
X231763Y47548D01*
X231688Y47620D01*
X231670Y47628D01*
X231655Y47641D01*
X231559Y47680D01*
X231465Y47723D01*
X231445Y47725D01*
X231427Y47733D01*
X231260Y47751D01*
X221742Y47751D01*
X221722Y47748D01*
X221703Y47750D01*
X221601Y47728D01*
X221499Y47712D01*
X221482Y47702D01*
X221462Y47698D01*
X221373Y47645D01*
X221282Y47596D01*
X221268Y47582D01*
X221251Y47572D01*
X221184Y47493D01*
X221112Y47418D01*
X221104Y47400D01*
X221091Y47385D01*
X221052Y47289D01*
X221009Y47195D01*
X221007Y47175D01*
X220999Y47157D01*
X220981Y46990D01*
X220981Y44207D01*
X219434Y40472D01*
X216576Y37614D01*
X212841Y36067D01*
X208799Y36067D01*
X205064Y37614D01*
X204887Y37792D01*
X204871Y37803D01*
X204858Y37819D01*
X204771Y37875D01*
X204687Y37935D01*
X204668Y37941D01*
X204651Y37952D01*
X204551Y37977D01*
X204452Y38008D01*
X204432Y38007D01*
X204413Y38012D01*
X204310Y38004D01*
X204206Y38001D01*
X204187Y37994D01*
X204168Y37993D01*
X204073Y37952D01*
X203975Y37917D01*
X203960Y37904D01*
X203941Y37896D01*
X203810Y37792D01*
X182236Y16217D01*
X180182Y15366D01*
X82708Y15366D01*
X80654Y16217D01*
X63842Y33029D01*
X62991Y35083D01*
X62991Y147865D01*
X62977Y147955D01*
X62969Y148046D01*
X62957Y148076D01*
X62952Y148107D01*
X62909Y148188D01*
X62873Y148272D01*
X62847Y148304D01*
X62836Y148325D01*
X62813Y148347D01*
X62768Y148403D01*
X56847Y154325D01*
X56768Y154381D01*
X56693Y154444D01*
X56668Y154453D01*
X56647Y154468D01*
X56554Y154497D01*
X56463Y154532D01*
X56437Y154533D01*
X56412Y154541D01*
X56315Y154538D01*
X56217Y154542D01*
X56192Y154535D01*
X56166Y154534D01*
X56074Y154501D01*
X55981Y154474D01*
X55960Y154459D01*
X55935Y154450D01*
X55859Y154389D01*
X55779Y154333D01*
X55763Y154312D01*
X55743Y154296D01*
X55690Y154214D01*
X55632Y154136D01*
X55624Y154111D01*
X55610Y154089D01*
X55586Y153995D01*
X55556Y153902D01*
X55556Y153876D01*
X55550Y153851D01*
X55557Y153754D01*
X55558Y153656D01*
X55568Y153625D01*
X55569Y153605D01*
X55582Y153575D01*
X55605Y153495D01*
X57024Y150070D01*
X57024Y46715D01*
X57028Y46686D01*
X57028Y46630D01*
X57460Y42784D01*
X55583Y36279D01*
X51462Y31116D01*
X51450Y31095D01*
X51434Y31079D01*
X51353Y30932D01*
X50345Y28498D01*
X46969Y25122D01*
X42557Y23294D01*
X37783Y23294D01*
X33371Y25122D01*
X29995Y28498D01*
X28772Y31451D01*
X28715Y31543D01*
X28662Y31637D01*
X28648Y31650D01*
X28642Y31660D01*
X28619Y31680D01*
X28543Y31755D01*
X26908Y33061D01*
X23635Y38987D01*
X23373Y41323D01*
X23367Y41346D01*
X23366Y41369D01*
X23320Y41530D01*
X22986Y42335D01*
X22986Y44725D01*
X22982Y44754D01*
X22982Y44810D01*
X22715Y47186D01*
X22956Y48023D01*
X22959Y48046D01*
X22968Y48067D01*
X22986Y48234D01*
X22986Y135621D01*
X22967Y135736D01*
X22950Y135852D01*
X22948Y135858D01*
X22947Y135864D01*
X22892Y135967D01*
X22839Y136071D01*
X22834Y136076D01*
X22831Y136081D01*
X22747Y136161D01*
X22663Y136244D01*
X22657Y136247D01*
X22653Y136251D01*
X22636Y136259D01*
X22516Y136325D01*
X21872Y136592D01*
X18228Y140236D01*
X16255Y144997D01*
X16255Y146051D01*
X16241Y146141D01*
X16233Y146232D01*
X16221Y146262D01*
X16216Y146294D01*
X16173Y146375D01*
X16137Y146459D01*
X16111Y146491D01*
X16100Y146511D01*
X16077Y146534D01*
X16032Y146590D01*
X14782Y147840D01*
X13403Y151169D01*
X13352Y151252D01*
X13306Y151337D01*
X13288Y151355D01*
X13274Y151378D01*
X13199Y151440D01*
X13128Y151507D01*
X13104Y151518D01*
X13084Y151535D01*
X12993Y151569D01*
X12905Y151610D01*
X12879Y151613D01*
X12855Y151623D01*
X12757Y151627D01*
X12661Y151638D01*
X12635Y151632D01*
X12609Y151633D01*
X12515Y151606D01*
X12420Y151585D01*
X12398Y151572D01*
X12373Y151565D01*
X12293Y151509D01*
X12209Y151459D01*
X12192Y151439D01*
X12171Y151424D01*
X12112Y151346D01*
X12049Y151272D01*
X12039Y151248D01*
X12024Y151227D01*
X11994Y151134D01*
X11957Y151044D01*
X11954Y151012D01*
X11948Y150993D01*
X11948Y150960D01*
X11939Y150877D01*
X11939Y12700D01*
X11942Y12680D01*
X11940Y12661D01*
X11962Y12559D01*
X11979Y12457D01*
X11988Y12440D01*
X11992Y12420D01*
X12045Y12331D01*
X12094Y12240D01*
X12108Y12226D01*
X12118Y12209D01*
X12197Y12142D01*
X12272Y12071D01*
X12290Y12062D01*
X12305Y12049D01*
X12401Y12010D01*
X12495Y11967D01*
X12515Y11965D01*
X12533Y11957D01*
X12700Y11939D01*
X271932Y11939D01*
X272003Y11950D01*
G37*
G36*
X405150Y53342D02*
X405150Y53342D01*
X405169Y53340D01*
X405271Y53362D01*
X405373Y53378D01*
X405390Y53388D01*
X405410Y53392D01*
X405499Y53445D01*
X405590Y53494D01*
X405604Y53508D01*
X405621Y53518D01*
X405688Y53597D01*
X405760Y53672D01*
X405768Y53690D01*
X405781Y53705D01*
X405820Y53801D01*
X405863Y53895D01*
X405865Y53915D01*
X405873Y53933D01*
X405891Y54100D01*
X405891Y75475D01*
X405877Y75565D01*
X405869Y75656D01*
X405857Y75686D01*
X405852Y75717D01*
X405809Y75798D01*
X405773Y75882D01*
X405747Y75914D01*
X405736Y75935D01*
X405713Y75957D01*
X405668Y76013D01*
X330542Y151139D01*
X329691Y153193D01*
X329691Y157970D01*
X329688Y157990D01*
X329690Y158009D01*
X329668Y158111D01*
X329652Y158213D01*
X329642Y158230D01*
X329638Y158250D01*
X329585Y158339D01*
X329536Y158430D01*
X329522Y158444D01*
X329512Y158461D01*
X329433Y158528D01*
X329358Y158600D01*
X329340Y158608D01*
X329325Y158621D01*
X329229Y158660D01*
X329135Y158703D01*
X329115Y158705D01*
X329097Y158713D01*
X328930Y158731D01*
X326487Y158731D01*
X324701Y160517D01*
X324701Y182245D01*
X324698Y182265D01*
X324700Y182284D01*
X324678Y182386D01*
X324662Y182488D01*
X324652Y182505D01*
X324648Y182525D01*
X324595Y182614D01*
X324546Y182705D01*
X324532Y182719D01*
X324522Y182736D01*
X324443Y182803D01*
X324368Y182875D01*
X324350Y182883D01*
X324335Y182896D01*
X324239Y182935D01*
X324145Y182978D01*
X324125Y182980D01*
X324107Y182988D01*
X323940Y183006D01*
X323560Y183006D01*
X323540Y183003D01*
X323521Y183005D01*
X323419Y182983D01*
X323317Y182967D01*
X323300Y182957D01*
X323280Y182953D01*
X323191Y182900D01*
X323100Y182851D01*
X323086Y182837D01*
X323069Y182827D01*
X323002Y182748D01*
X322930Y182673D01*
X322922Y182655D01*
X322909Y182640D01*
X322870Y182544D01*
X322827Y182450D01*
X322825Y182430D01*
X322817Y182412D01*
X322799Y182245D01*
X322799Y160517D01*
X321013Y158731D01*
X318770Y158731D01*
X318750Y158728D01*
X318731Y158730D01*
X318629Y158708D01*
X318527Y158692D01*
X318510Y158682D01*
X318490Y158678D01*
X318401Y158625D01*
X318310Y158576D01*
X318296Y158562D01*
X318279Y158552D01*
X318212Y158473D01*
X318140Y158398D01*
X318132Y158380D01*
X318119Y158365D01*
X318080Y158269D01*
X318037Y158175D01*
X318035Y158155D01*
X318027Y158137D01*
X318009Y157970D01*
X318009Y141763D01*
X317158Y139709D01*
X308479Y131031D01*
X308468Y131015D01*
X308452Y131002D01*
X308396Y130915D01*
X308336Y130831D01*
X308330Y130812D01*
X308319Y130795D01*
X308294Y130695D01*
X308264Y130596D01*
X308264Y130576D01*
X308259Y130557D01*
X308267Y130454D01*
X308270Y130350D01*
X308277Y130331D01*
X308278Y130311D01*
X308319Y130217D01*
X308354Y130119D01*
X308367Y130103D01*
X308375Y130085D01*
X308479Y129954D01*
X384872Y53562D01*
X384946Y53509D01*
X385015Y53449D01*
X385046Y53437D01*
X385072Y53418D01*
X385159Y53391D01*
X385244Y53357D01*
X385284Y53353D01*
X385307Y53346D01*
X385339Y53347D01*
X385410Y53339D01*
X405130Y53339D01*
X405150Y53342D01*
G37*
%LPC*%
G36*
X146013Y256539D02*
X146013Y256539D01*
X141252Y258512D01*
X137608Y262156D01*
X135635Y266917D01*
X135635Y284771D01*
X135621Y284861D01*
X135613Y284952D01*
X135601Y284982D01*
X135596Y285013D01*
X135553Y285094D01*
X135517Y285178D01*
X135491Y285210D01*
X135480Y285231D01*
X135457Y285253D01*
X135412Y285309D01*
X113372Y307349D01*
X112521Y309403D01*
X112521Y329142D01*
X112507Y329232D01*
X112499Y329323D01*
X112487Y329353D01*
X112482Y329385D01*
X112439Y329465D01*
X112403Y329549D01*
X112377Y329581D01*
X112366Y329602D01*
X112343Y329624D01*
X112298Y329680D01*
X110721Y331257D01*
X110721Y334645D01*
X110718Y334665D01*
X110720Y334684D01*
X110698Y334786D01*
X110682Y334888D01*
X110672Y334905D01*
X110668Y334925D01*
X110615Y335014D01*
X110566Y335105D01*
X110552Y335119D01*
X110542Y335136D01*
X110463Y335203D01*
X110388Y335275D01*
X110370Y335283D01*
X110355Y335296D01*
X110259Y335335D01*
X110165Y335378D01*
X110145Y335380D01*
X110127Y335388D01*
X109960Y335406D01*
X96043Y335406D01*
X96026Y335413D01*
X95963Y335428D01*
X95902Y335453D01*
X95819Y335462D01*
X95787Y335469D01*
X95767Y335468D01*
X95735Y335471D01*
X77297Y335471D01*
X75511Y337257D01*
X75511Y363783D01*
X77297Y365569D01*
X97823Y365569D01*
X99609Y363783D01*
X99609Y347345D01*
X99612Y347325D01*
X99610Y347306D01*
X99632Y347204D01*
X99648Y347102D01*
X99658Y347085D01*
X99662Y347065D01*
X99715Y346976D01*
X99764Y346885D01*
X99778Y346871D01*
X99788Y346854D01*
X99867Y346787D01*
X99942Y346715D01*
X99960Y346707D01*
X99975Y346694D01*
X100071Y346655D01*
X100165Y346612D01*
X100185Y346610D01*
X100203Y346602D01*
X100370Y346584D01*
X109960Y346584D01*
X109980Y346587D01*
X109999Y346585D01*
X110101Y346607D01*
X110203Y346623D01*
X110220Y346633D01*
X110240Y346637D01*
X110329Y346690D01*
X110420Y346739D01*
X110434Y346753D01*
X110451Y346763D01*
X110518Y346842D01*
X110590Y346917D01*
X110598Y346935D01*
X110611Y346950D01*
X110650Y347046D01*
X110693Y347140D01*
X110695Y347160D01*
X110703Y347178D01*
X110721Y347345D01*
X110721Y347783D01*
X112507Y349569D01*
X125033Y349569D01*
X126819Y347783D01*
X126819Y331257D01*
X125033Y329471D01*
X124460Y329471D01*
X124440Y329468D01*
X124421Y329470D01*
X124319Y329448D01*
X124217Y329432D01*
X124200Y329422D01*
X124180Y329418D01*
X124091Y329365D01*
X124000Y329316D01*
X123986Y329302D01*
X123969Y329292D01*
X123902Y329213D01*
X123830Y329138D01*
X123822Y329120D01*
X123809Y329105D01*
X123770Y329009D01*
X123727Y328915D01*
X123725Y328895D01*
X123717Y328877D01*
X123699Y328710D01*
X123699Y313145D01*
X123713Y313055D01*
X123721Y312964D01*
X123733Y312934D01*
X123738Y312903D01*
X123781Y312822D01*
X123817Y312738D01*
X123843Y312706D01*
X123854Y312685D01*
X123877Y312663D01*
X123922Y312607D01*
X138208Y298321D01*
X138224Y298309D01*
X138236Y298294D01*
X138324Y298238D01*
X138407Y298177D01*
X138426Y298172D01*
X138443Y298161D01*
X138544Y298135D01*
X138642Y298105D01*
X138662Y298106D01*
X138682Y298101D01*
X138785Y298109D01*
X138888Y298111D01*
X138907Y298118D01*
X138927Y298120D01*
X139022Y298160D01*
X139119Y298196D01*
X139135Y298208D01*
X139153Y298216D01*
X139284Y298321D01*
X141252Y300288D01*
X146013Y302261D01*
X151167Y302261D01*
X155928Y300288D01*
X159572Y296644D01*
X161545Y291883D01*
X161545Y266917D01*
X159572Y262156D01*
X155928Y258512D01*
X151167Y256539D01*
X146013Y256539D01*
G37*
%LPD*%
G36*
X414745Y100306D02*
X414745Y100306D01*
X414797Y100307D01*
X414865Y100332D01*
X414935Y100347D01*
X414979Y100374D01*
X415028Y100392D01*
X415084Y100437D01*
X415146Y100473D01*
X415180Y100513D01*
X415220Y100546D01*
X415259Y100606D01*
X415306Y100660D01*
X415325Y100709D01*
X415353Y100752D01*
X415371Y100822D01*
X415398Y100888D01*
X415406Y100960D01*
X415414Y100991D01*
X415412Y101014D01*
X415416Y101055D01*
X415416Y147230D01*
X415402Y147320D01*
X415394Y147411D01*
X415382Y147441D01*
X415377Y147472D01*
X415334Y147553D01*
X415298Y147637D01*
X415272Y147669D01*
X415261Y147690D01*
X415238Y147712D01*
X415193Y147768D01*
X397323Y165638D01*
X397249Y165691D01*
X397180Y165751D01*
X397149Y165763D01*
X397123Y165782D01*
X397036Y165809D01*
X396951Y165843D01*
X396911Y165847D01*
X396888Y165854D01*
X396856Y165853D01*
X396785Y165861D01*
X383560Y165861D01*
X383540Y165858D01*
X383521Y165860D01*
X383419Y165838D01*
X383317Y165822D01*
X383300Y165812D01*
X383280Y165808D01*
X383191Y165755D01*
X383100Y165706D01*
X383086Y165692D01*
X383069Y165682D01*
X383002Y165603D01*
X382930Y165528D01*
X382922Y165510D01*
X382909Y165495D01*
X382870Y165399D01*
X382827Y165305D01*
X382825Y165285D01*
X382817Y165267D01*
X382799Y165100D01*
X382799Y160517D01*
X381097Y158815D01*
X381044Y158741D01*
X380984Y158672D01*
X380972Y158642D01*
X380953Y158615D01*
X380926Y158528D01*
X380892Y158444D01*
X380888Y158403D01*
X380881Y158380D01*
X380882Y158348D01*
X380874Y158277D01*
X380874Y145505D01*
X380888Y145415D01*
X380896Y145324D01*
X380908Y145294D01*
X380913Y145263D01*
X380956Y145182D01*
X380992Y145098D01*
X381018Y145066D01*
X381029Y145045D01*
X381052Y145023D01*
X381097Y144967D01*
X381442Y144622D01*
X381516Y144569D01*
X381585Y144509D01*
X381616Y144497D01*
X381642Y144478D01*
X381729Y144451D01*
X381814Y144417D01*
X381854Y144413D01*
X381877Y144406D01*
X381909Y144407D01*
X381980Y144399D01*
X394473Y144399D01*
X396259Y142613D01*
X396259Y124087D01*
X394473Y122301D01*
X394170Y122301D01*
X394099Y122290D01*
X394028Y122288D01*
X393979Y122270D01*
X393927Y122262D01*
X393864Y122228D01*
X393797Y122203D01*
X393756Y122171D01*
X393710Y122146D01*
X393661Y122095D01*
X393605Y122050D01*
X393577Y122006D01*
X393541Y121968D01*
X393511Y121903D01*
X393472Y121843D01*
X393459Y121792D01*
X393437Y121745D01*
X393429Y121674D01*
X393412Y121604D01*
X393416Y121552D01*
X393410Y121501D01*
X393425Y121430D01*
X393431Y121359D01*
X393451Y121311D01*
X393462Y121260D01*
X393499Y121199D01*
X393527Y121133D01*
X393572Y121077D01*
X393588Y121049D01*
X393606Y121034D01*
X393632Y121002D01*
X414117Y100517D01*
X414175Y100475D01*
X414227Y100426D01*
X414274Y100404D01*
X414316Y100373D01*
X414385Y100352D01*
X414450Y100322D01*
X414502Y100316D01*
X414552Y100301D01*
X414623Y100303D01*
X414694Y100295D01*
X414745Y100306D01*
G37*
G36*
X444520Y11942D02*
X444520Y11942D01*
X444539Y11940D01*
X444641Y11962D01*
X444743Y11979D01*
X444760Y11988D01*
X444780Y11992D01*
X444869Y12045D01*
X444960Y12094D01*
X444974Y12108D01*
X444991Y12118D01*
X445058Y12197D01*
X445130Y12272D01*
X445138Y12290D01*
X445151Y12305D01*
X445190Y12401D01*
X445233Y12495D01*
X445235Y12515D01*
X445243Y12533D01*
X445261Y12700D01*
X445261Y24040D01*
X445250Y24110D01*
X445248Y24182D01*
X445230Y24231D01*
X445222Y24283D01*
X445188Y24346D01*
X445163Y24413D01*
X445131Y24454D01*
X445106Y24500D01*
X445055Y24549D01*
X445010Y24605D01*
X444966Y24633D01*
X444928Y24669D01*
X444863Y24699D01*
X444803Y24738D01*
X444752Y24751D01*
X444705Y24773D01*
X444634Y24781D01*
X444564Y24798D01*
X444512Y24794D01*
X444461Y24800D01*
X444390Y24785D01*
X444319Y24779D01*
X444271Y24759D01*
X444220Y24748D01*
X444159Y24711D01*
X444093Y24683D01*
X444037Y24638D01*
X444009Y24622D01*
X443994Y24604D01*
X443962Y24578D01*
X443072Y23688D01*
X443019Y23614D01*
X442959Y23545D01*
X442947Y23514D01*
X442928Y23488D01*
X442901Y23401D01*
X442867Y23316D01*
X442863Y23276D01*
X442856Y23253D01*
X442857Y23221D01*
X442849Y23150D01*
X442849Y17027D01*
X441063Y15241D01*
X384437Y15241D01*
X382651Y17027D01*
X382651Y20320D01*
X382649Y20337D01*
X382650Y20352D01*
X382650Y20355D01*
X382650Y20359D01*
X382628Y20461D01*
X382612Y20563D01*
X382602Y20580D01*
X382598Y20600D01*
X382545Y20689D01*
X382496Y20780D01*
X382482Y20794D01*
X382472Y20811D01*
X382393Y20878D01*
X382318Y20950D01*
X382300Y20958D01*
X382285Y20971D01*
X382189Y21010D01*
X382095Y21053D01*
X382075Y21055D01*
X382057Y21063D01*
X381890Y21081D01*
X316180Y21081D01*
X316160Y21078D01*
X316141Y21080D01*
X316039Y21058D01*
X315937Y21042D01*
X315920Y21032D01*
X315900Y21028D01*
X315811Y20975D01*
X315720Y20926D01*
X315706Y20912D01*
X315689Y20902D01*
X315622Y20823D01*
X315550Y20748D01*
X315542Y20730D01*
X315529Y20715D01*
X315490Y20619D01*
X315447Y20525D01*
X315445Y20505D01*
X315437Y20487D01*
X315419Y20320D01*
X315419Y14387D01*
X314270Y13238D01*
X314228Y13180D01*
X314179Y13128D01*
X314157Y13081D01*
X314126Y13039D01*
X314105Y12970D01*
X314075Y12905D01*
X314069Y12853D01*
X314054Y12803D01*
X314056Y12732D01*
X314048Y12661D01*
X314059Y12610D01*
X314060Y12558D01*
X314085Y12490D01*
X314100Y12420D01*
X314127Y12376D01*
X314145Y12327D01*
X314190Y12271D01*
X314226Y12209D01*
X314266Y12175D01*
X314298Y12135D01*
X314359Y12096D01*
X314413Y12049D01*
X314462Y12030D01*
X314505Y12002D01*
X314575Y11984D01*
X314641Y11957D01*
X314713Y11949D01*
X314744Y11941D01*
X314767Y11943D01*
X314808Y11939D01*
X444500Y11939D01*
X444520Y11942D01*
G37*
G36*
X397510Y329454D02*
X397510Y329454D01*
X397601Y329461D01*
X397631Y329473D01*
X397663Y329479D01*
X397743Y329521D01*
X397827Y329557D01*
X397859Y329583D01*
X397880Y329594D01*
X397902Y329617D01*
X397958Y329662D01*
X417098Y348802D01*
X417151Y348876D01*
X417211Y348945D01*
X417223Y348976D01*
X417242Y349002D01*
X417269Y349089D01*
X417303Y349174D01*
X417307Y349214D01*
X417314Y349237D01*
X417313Y349269D01*
X417321Y349340D01*
X417321Y362252D01*
X417310Y362323D01*
X417308Y362395D01*
X417290Y362443D01*
X417282Y362495D01*
X417248Y362558D01*
X417223Y362626D01*
X417191Y362666D01*
X417166Y362712D01*
X417114Y362761D01*
X417070Y362818D01*
X417026Y362846D01*
X416988Y362882D01*
X416923Y362912D01*
X416863Y362951D01*
X416812Y362963D01*
X416765Y362985D01*
X416694Y362993D01*
X416624Y363011D01*
X416572Y363007D01*
X416521Y363012D01*
X416450Y362997D01*
X416379Y362991D01*
X416331Y362971D01*
X416280Y362960D01*
X416219Y362923D01*
X416153Y362895D01*
X416097Y362850D01*
X416069Y362834D01*
X416054Y362816D01*
X416022Y362790D01*
X415966Y362734D01*
X412231Y361187D01*
X408189Y361187D01*
X404454Y362734D01*
X404277Y362912D01*
X404261Y362923D01*
X404248Y362939D01*
X404161Y362995D01*
X404077Y363055D01*
X404058Y363061D01*
X404041Y363072D01*
X403941Y363097D01*
X403842Y363128D01*
X403822Y363127D01*
X403803Y363132D01*
X403700Y363124D01*
X403596Y363121D01*
X403577Y363114D01*
X403558Y363113D01*
X403463Y363072D01*
X403365Y363037D01*
X403350Y363024D01*
X403331Y363016D01*
X403200Y362912D01*
X381097Y340808D01*
X381044Y340734D01*
X380984Y340665D01*
X380972Y340634D01*
X380953Y340608D01*
X380926Y340521D01*
X380892Y340436D01*
X380888Y340396D01*
X380881Y340373D01*
X380882Y340341D01*
X380874Y340270D01*
X380874Y335283D01*
X380888Y335193D01*
X380896Y335102D01*
X380908Y335072D01*
X380913Y335040D01*
X380956Y334960D01*
X380992Y334876D01*
X381018Y334844D01*
X381029Y334823D01*
X381052Y334801D01*
X381097Y334745D01*
X382799Y333043D01*
X382799Y330200D01*
X382802Y330180D01*
X382800Y330161D01*
X382822Y330059D01*
X382838Y329957D01*
X382848Y329940D01*
X382852Y329920D01*
X382905Y329831D01*
X382954Y329740D01*
X382968Y329726D01*
X382978Y329709D01*
X383057Y329642D01*
X383132Y329571D01*
X383150Y329562D01*
X383165Y329549D01*
X383261Y329510D01*
X383355Y329467D01*
X383375Y329465D01*
X383393Y329457D01*
X383560Y329439D01*
X397420Y329439D01*
X397510Y329454D01*
G37*
G36*
X444520Y329442D02*
X444520Y329442D01*
X444539Y329440D01*
X444641Y329462D01*
X444743Y329479D01*
X444760Y329488D01*
X444780Y329492D01*
X444869Y329545D01*
X444960Y329594D01*
X444974Y329608D01*
X444991Y329618D01*
X445058Y329697D01*
X445130Y329772D01*
X445138Y329790D01*
X445151Y329805D01*
X445190Y329901D01*
X445233Y329995D01*
X445235Y330015D01*
X445243Y330033D01*
X445261Y330200D01*
X445261Y365002D01*
X445260Y365010D01*
X445261Y365018D01*
X445240Y365132D01*
X445222Y365245D01*
X445218Y365252D01*
X445216Y365260D01*
X445160Y365361D01*
X445106Y365463D01*
X445101Y365468D01*
X445097Y365475D01*
X445012Y365553D01*
X444928Y365632D01*
X444921Y365635D01*
X444915Y365641D01*
X444809Y365687D01*
X444705Y365736D01*
X444697Y365736D01*
X444690Y365740D01*
X444575Y365750D01*
X444461Y365763D01*
X444453Y365761D01*
X444445Y365762D01*
X444332Y365735D01*
X444220Y365710D01*
X444213Y365706D01*
X444206Y365704D01*
X444107Y365643D01*
X444009Y365584D01*
X444004Y365578D01*
X443997Y365574D01*
X443884Y365450D01*
X443360Y364729D01*
X442229Y363598D01*
X440935Y362658D01*
X439510Y361932D01*
X437989Y361437D01*
X437133Y361302D01*
X437133Y377698D01*
X437130Y377718D01*
X437132Y377737D01*
X437110Y377839D01*
X437093Y377941D01*
X437084Y377958D01*
X437080Y377978D01*
X437027Y378067D01*
X436978Y378158D01*
X436964Y378172D01*
X436954Y378189D01*
X436875Y378256D01*
X436800Y378327D01*
X436782Y378336D01*
X436767Y378349D01*
X436671Y378387D01*
X436577Y378431D01*
X436557Y378433D01*
X436539Y378441D01*
X436372Y378459D01*
X434848Y378459D01*
X434828Y378456D01*
X434809Y378458D01*
X434707Y378436D01*
X434605Y378419D01*
X434588Y378410D01*
X434568Y378406D01*
X434479Y378353D01*
X434388Y378304D01*
X434374Y378290D01*
X434357Y378280D01*
X434290Y378201D01*
X434219Y378126D01*
X434210Y378108D01*
X434197Y378093D01*
X434158Y377997D01*
X434115Y377903D01*
X434113Y377883D01*
X434105Y377865D01*
X434087Y377698D01*
X434087Y361302D01*
X433231Y361437D01*
X431710Y361932D01*
X430285Y362658D01*
X429707Y363077D01*
X429697Y363082D01*
X429688Y363091D01*
X429587Y363138D01*
X429488Y363188D01*
X429476Y363189D01*
X429465Y363194D01*
X429354Y363207D01*
X429244Y363222D01*
X429232Y363220D01*
X429221Y363221D01*
X429112Y363198D01*
X429002Y363178D01*
X428992Y363172D01*
X428980Y363169D01*
X428885Y363112D01*
X428787Y363058D01*
X428779Y363049D01*
X428769Y363043D01*
X428697Y362958D01*
X428622Y362876D01*
X428617Y362865D01*
X428609Y362856D01*
X428567Y362753D01*
X428523Y362651D01*
X428522Y362639D01*
X428517Y362628D01*
X428499Y362461D01*
X428499Y345598D01*
X427648Y343544D01*
X414842Y330738D01*
X414800Y330680D01*
X414751Y330628D01*
X414729Y330581D01*
X414698Y330539D01*
X414677Y330470D01*
X414647Y330405D01*
X414641Y330353D01*
X414626Y330303D01*
X414628Y330232D01*
X414620Y330161D01*
X414631Y330110D01*
X414632Y330058D01*
X414657Y329990D01*
X414672Y329920D01*
X414699Y329876D01*
X414717Y329827D01*
X414762Y329771D01*
X414798Y329709D01*
X414838Y329675D01*
X414871Y329635D01*
X414931Y329596D01*
X414985Y329549D01*
X415034Y329530D01*
X415077Y329502D01*
X415147Y329484D01*
X415214Y329457D01*
X415285Y329449D01*
X415316Y329441D01*
X415339Y329443D01*
X415380Y329439D01*
X444500Y329439D01*
X444520Y329442D01*
G37*
G36*
X284519Y358888D02*
X284519Y358888D01*
X284622Y358890D01*
X284641Y358897D01*
X284661Y358899D01*
X284756Y358939D01*
X284853Y358975D01*
X284869Y358987D01*
X284887Y358995D01*
X285018Y359100D01*
X286217Y360299D01*
X296545Y360299D01*
X296565Y360302D01*
X296584Y360300D01*
X296686Y360322D01*
X296788Y360338D01*
X296805Y360348D01*
X296825Y360352D01*
X296914Y360405D01*
X297005Y360454D01*
X297019Y360468D01*
X297036Y360478D01*
X297103Y360557D01*
X297175Y360632D01*
X297183Y360650D01*
X297196Y360665D01*
X297235Y360761D01*
X297278Y360855D01*
X297280Y360875D01*
X297288Y360893D01*
X297306Y361060D01*
X297306Y379350D01*
X297303Y379370D01*
X297305Y379389D01*
X297283Y379491D01*
X297267Y379593D01*
X297257Y379610D01*
X297253Y379630D01*
X297200Y379719D01*
X297151Y379810D01*
X297137Y379824D01*
X297127Y379841D01*
X297048Y379908D01*
X296973Y379980D01*
X296955Y379988D01*
X296940Y380001D01*
X296844Y380040D01*
X296750Y380083D01*
X296730Y380085D01*
X296712Y380093D01*
X296545Y380111D01*
X292597Y380111D01*
X290811Y381897D01*
X290811Y395370D01*
X290800Y395441D01*
X290798Y395512D01*
X290780Y395561D01*
X290772Y395613D01*
X290738Y395676D01*
X290713Y395743D01*
X290681Y395784D01*
X290656Y395830D01*
X290604Y395879D01*
X290560Y395935D01*
X290516Y395963D01*
X290478Y395999D01*
X290413Y396029D01*
X290353Y396068D01*
X290302Y396081D01*
X290255Y396103D01*
X290184Y396111D01*
X290114Y396128D01*
X290062Y396124D01*
X290011Y396130D01*
X289940Y396115D01*
X289869Y396109D01*
X289821Y396089D01*
X289770Y396078D01*
X289709Y396041D01*
X289643Y396013D01*
X289587Y395968D01*
X289559Y395952D01*
X289544Y395934D01*
X289512Y395908D01*
X268702Y375098D01*
X268649Y375024D01*
X268589Y374955D01*
X268577Y374924D01*
X268558Y374898D01*
X268531Y374811D01*
X268497Y374726D01*
X268493Y374686D01*
X268486Y374663D01*
X268487Y374631D01*
X268479Y374560D01*
X268479Y368390D01*
X268493Y368300D01*
X268501Y368209D01*
X268513Y368179D01*
X268518Y368148D01*
X268561Y368067D01*
X268597Y367983D01*
X268623Y367951D01*
X268634Y367930D01*
X268657Y367908D01*
X268702Y367852D01*
X276032Y360522D01*
X276106Y360469D01*
X276175Y360409D01*
X276206Y360397D01*
X276232Y360378D01*
X276319Y360351D01*
X276404Y360317D01*
X276444Y360313D01*
X276467Y360306D01*
X276499Y360307D01*
X276570Y360299D01*
X282743Y360299D01*
X283942Y359100D01*
X283958Y359088D01*
X283970Y359073D01*
X284058Y359017D01*
X284141Y358956D01*
X284160Y358950D01*
X284177Y358940D01*
X284278Y358914D01*
X284377Y358884D01*
X284396Y358884D01*
X284416Y358880D01*
X284519Y358888D01*
G37*
G36*
X444590Y81891D02*
X444590Y81891D01*
X444642Y81892D01*
X444710Y81917D01*
X444780Y81932D01*
X444824Y81959D01*
X444873Y81977D01*
X444929Y82022D01*
X444991Y82058D01*
X445025Y82098D01*
X445065Y82131D01*
X445104Y82191D01*
X445151Y82245D01*
X445170Y82294D01*
X445198Y82337D01*
X445216Y82407D01*
X445243Y82474D01*
X445251Y82545D01*
X445259Y82576D01*
X445257Y82599D01*
X445261Y82640D01*
X445261Y121540D01*
X445258Y121560D01*
X445260Y121579D01*
X445238Y121681D01*
X445222Y121783D01*
X445212Y121800D01*
X445208Y121820D01*
X445155Y121909D01*
X445106Y122000D01*
X445092Y122014D01*
X445082Y122031D01*
X445003Y122098D01*
X444928Y122170D01*
X444910Y122178D01*
X444895Y122191D01*
X444799Y122230D01*
X444705Y122273D01*
X444685Y122275D01*
X444667Y122283D01*
X444500Y122301D01*
X438733Y122301D01*
X438733Y132588D01*
X438730Y132608D01*
X438732Y132627D01*
X438710Y132729D01*
X438693Y132831D01*
X438684Y132848D01*
X438680Y132868D01*
X438627Y132957D01*
X438578Y133048D01*
X438564Y133062D01*
X438554Y133079D01*
X438475Y133146D01*
X438400Y133217D01*
X438382Y133226D01*
X438367Y133239D01*
X438271Y133278D01*
X438177Y133321D01*
X438157Y133323D01*
X438139Y133331D01*
X437972Y133349D01*
X436448Y133349D01*
X436428Y133346D01*
X436409Y133348D01*
X436307Y133326D01*
X436205Y133309D01*
X436188Y133300D01*
X436168Y133296D01*
X436079Y133243D01*
X435988Y133194D01*
X435974Y133180D01*
X435957Y133170D01*
X435890Y133091D01*
X435819Y133016D01*
X435810Y132998D01*
X435797Y132983D01*
X435758Y132887D01*
X435715Y132793D01*
X435713Y132773D01*
X435705Y132755D01*
X435687Y132588D01*
X435687Y122301D01*
X427355Y122301D01*
X427335Y122298D01*
X427316Y122300D01*
X427214Y122278D01*
X427112Y122262D01*
X427095Y122252D01*
X427075Y122248D01*
X426986Y122195D01*
X426895Y122146D01*
X426881Y122132D01*
X426864Y122122D01*
X426797Y122043D01*
X426725Y121968D01*
X426717Y121950D01*
X426704Y121935D01*
X426665Y121839D01*
X426622Y121745D01*
X426620Y121725D01*
X426612Y121707D01*
X426594Y121540D01*
X426594Y99785D01*
X426608Y99695D01*
X426616Y99604D01*
X426628Y99574D01*
X426633Y99543D01*
X426676Y99462D01*
X426712Y99378D01*
X426738Y99346D01*
X426749Y99325D01*
X426772Y99303D01*
X426817Y99247D01*
X443962Y82102D01*
X444020Y82060D01*
X444072Y82011D01*
X444119Y81989D01*
X444161Y81958D01*
X444230Y81937D01*
X444295Y81907D01*
X444347Y81901D01*
X444397Y81886D01*
X444468Y81888D01*
X444539Y81880D01*
X444590Y81891D01*
G37*
G36*
X369490Y128416D02*
X369490Y128416D01*
X369542Y128417D01*
X369610Y128442D01*
X369680Y128457D01*
X369725Y128484D01*
X369773Y128502D01*
X369829Y128547D01*
X369858Y128563D01*
X369860Y128565D01*
X369861Y128565D01*
X369891Y128583D01*
X369925Y128623D01*
X369965Y128656D01*
X370004Y128716D01*
X370011Y128723D01*
X370030Y128743D01*
X370032Y128748D01*
X370051Y128770D01*
X370070Y128819D01*
X370098Y128862D01*
X370115Y128926D01*
X370133Y128966D01*
X370134Y128978D01*
X370143Y128998D01*
X370151Y129070D01*
X370159Y129101D01*
X370157Y129124D01*
X370161Y129165D01*
X370161Y140489D01*
X370151Y140554D01*
X370150Y140620D01*
X370127Y140700D01*
X370122Y140732D01*
X370112Y140749D01*
X370103Y140781D01*
X369696Y141763D01*
X369696Y157970D01*
X369693Y157990D01*
X369695Y158009D01*
X369673Y158111D01*
X369657Y158213D01*
X369647Y158230D01*
X369643Y158250D01*
X369590Y158339D01*
X369541Y158430D01*
X369527Y158444D01*
X369517Y158461D01*
X369438Y158528D01*
X369363Y158600D01*
X369345Y158608D01*
X369330Y158621D01*
X369234Y158660D01*
X369140Y158703D01*
X369120Y158705D01*
X369102Y158713D01*
X368935Y158731D01*
X366487Y158731D01*
X364701Y160517D01*
X364701Y182245D01*
X364698Y182265D01*
X364700Y182284D01*
X364678Y182386D01*
X364662Y182488D01*
X364652Y182505D01*
X364648Y182525D01*
X364595Y182614D01*
X364546Y182705D01*
X364532Y182719D01*
X364522Y182736D01*
X364443Y182803D01*
X364368Y182875D01*
X364350Y182883D01*
X364335Y182896D01*
X364239Y182935D01*
X364145Y182978D01*
X364125Y182980D01*
X364107Y182988D01*
X363940Y183006D01*
X363560Y183006D01*
X363540Y183003D01*
X363521Y183005D01*
X363419Y182983D01*
X363317Y182967D01*
X363300Y182957D01*
X363280Y182953D01*
X363191Y182900D01*
X363100Y182851D01*
X363086Y182837D01*
X363069Y182827D01*
X363002Y182748D01*
X362930Y182673D01*
X362922Y182655D01*
X362909Y182640D01*
X362870Y182544D01*
X362827Y182450D01*
X362825Y182430D01*
X362817Y182412D01*
X362799Y182245D01*
X362799Y160517D01*
X361013Y158731D01*
X346487Y158731D01*
X344701Y160517D01*
X344701Y182245D01*
X344698Y182265D01*
X344700Y182284D01*
X344678Y182386D01*
X344662Y182488D01*
X344652Y182505D01*
X344648Y182525D01*
X344595Y182614D01*
X344546Y182705D01*
X344532Y182719D01*
X344522Y182736D01*
X344443Y182803D01*
X344368Y182875D01*
X344350Y182883D01*
X344335Y182896D01*
X344239Y182935D01*
X344145Y182978D01*
X344125Y182980D01*
X344107Y182988D01*
X343940Y183006D01*
X343560Y183006D01*
X343540Y183003D01*
X343521Y183005D01*
X343419Y182983D01*
X343317Y182967D01*
X343300Y182957D01*
X343280Y182953D01*
X343191Y182900D01*
X343100Y182851D01*
X343086Y182837D01*
X343069Y182827D01*
X343002Y182748D01*
X342930Y182673D01*
X342922Y182655D01*
X342909Y182640D01*
X342870Y182544D01*
X342827Y182450D01*
X342825Y182430D01*
X342817Y182412D01*
X342799Y182245D01*
X342799Y160517D01*
X341092Y158810D01*
X341039Y158736D01*
X340979Y158667D01*
X340967Y158637D01*
X340948Y158610D01*
X340921Y158523D01*
X340887Y158439D01*
X340883Y158398D01*
X340876Y158375D01*
X340877Y158343D01*
X340869Y158272D01*
X340869Y156935D01*
X340883Y156845D01*
X340891Y156754D01*
X340903Y156724D01*
X340908Y156693D01*
X340951Y156612D01*
X340987Y156528D01*
X341013Y156496D01*
X341024Y156475D01*
X341047Y156453D01*
X341092Y156397D01*
X368862Y128627D01*
X368920Y128585D01*
X368972Y128536D01*
X368992Y128526D01*
X368999Y128520D01*
X369024Y128510D01*
X369061Y128483D01*
X369130Y128462D01*
X369195Y128432D01*
X369227Y128429D01*
X369227Y128428D01*
X369247Y128426D01*
X369297Y128411D01*
X369368Y128413D01*
X369394Y128410D01*
X369439Y128405D01*
X369490Y128416D01*
G37*
G36*
X437992Y133354D02*
X437992Y133354D01*
X438011Y133352D01*
X438113Y133374D01*
X438215Y133391D01*
X438232Y133400D01*
X438252Y133404D01*
X438341Y133457D01*
X438432Y133506D01*
X438446Y133520D01*
X438463Y133530D01*
X438530Y133609D01*
X438601Y133684D01*
X438610Y133702D01*
X438623Y133717D01*
X438662Y133813D01*
X438705Y133907D01*
X438707Y133927D01*
X438715Y133945D01*
X438733Y134112D01*
X438733Y144399D01*
X444500Y144399D01*
X444520Y144402D01*
X444539Y144400D01*
X444641Y144422D01*
X444743Y144438D01*
X444760Y144448D01*
X444780Y144452D01*
X444869Y144505D01*
X444960Y144554D01*
X444974Y144568D01*
X444991Y144578D01*
X445058Y144657D01*
X445130Y144732D01*
X445138Y144750D01*
X445151Y144765D01*
X445190Y144861D01*
X445233Y144955D01*
X445235Y144975D01*
X445243Y144993D01*
X445261Y145160D01*
X445261Y165100D01*
X445258Y165120D01*
X445260Y165139D01*
X445238Y165241D01*
X445222Y165343D01*
X445212Y165360D01*
X445208Y165380D01*
X445155Y165469D01*
X445106Y165560D01*
X445092Y165574D01*
X445082Y165591D01*
X445003Y165658D01*
X444928Y165730D01*
X444910Y165738D01*
X444895Y165751D01*
X444799Y165790D01*
X444705Y165833D01*
X444685Y165835D01*
X444667Y165843D01*
X444500Y165861D01*
X414745Y165861D01*
X414675Y165850D01*
X414603Y165848D01*
X414554Y165830D01*
X414502Y165822D01*
X414439Y165788D01*
X414372Y165763D01*
X414331Y165731D01*
X414285Y165706D01*
X414236Y165655D01*
X414180Y165610D01*
X414152Y165566D01*
X414116Y165528D01*
X414086Y165463D01*
X414047Y165403D01*
X414034Y165352D01*
X414012Y165305D01*
X414004Y165234D01*
X413987Y165164D01*
X413991Y165112D01*
X413985Y165061D01*
X414000Y164990D01*
X414006Y164919D01*
X414026Y164871D01*
X414037Y164820D01*
X414074Y164759D01*
X414102Y164693D01*
X414147Y164637D01*
X414163Y164609D01*
X414181Y164594D01*
X414207Y164562D01*
X425743Y153026D01*
X426594Y150972D01*
X426594Y145160D01*
X426597Y145140D01*
X426595Y145121D01*
X426617Y145019D01*
X426633Y144917D01*
X426643Y144900D01*
X426647Y144880D01*
X426700Y144791D01*
X426749Y144700D01*
X426763Y144686D01*
X426773Y144669D01*
X426852Y144602D01*
X426927Y144530D01*
X426945Y144522D01*
X426960Y144509D01*
X427056Y144470D01*
X427150Y144427D01*
X427170Y144425D01*
X427188Y144417D01*
X427355Y144399D01*
X435687Y144399D01*
X435687Y134112D01*
X435690Y134092D01*
X435688Y134073D01*
X435710Y133971D01*
X435727Y133869D01*
X435736Y133852D01*
X435740Y133832D01*
X435793Y133743D01*
X435842Y133652D01*
X435856Y133638D01*
X435866Y133621D01*
X435945Y133554D01*
X436020Y133483D01*
X436038Y133474D01*
X436053Y133461D01*
X436149Y133422D01*
X436243Y133379D01*
X436263Y133377D01*
X436281Y133369D01*
X436448Y133351D01*
X437972Y133351D01*
X437992Y133354D01*
G37*
%LPC*%
G36*
X266487Y308731D02*
X266487Y308731D01*
X264701Y310517D01*
X264701Y333043D01*
X266487Y334829D01*
X281013Y334829D01*
X282799Y333043D01*
X282799Y310517D01*
X281013Y308731D01*
X266487Y308731D01*
G37*
%LPD*%
%LPC*%
G36*
X326487Y308731D02*
X326487Y308731D01*
X324701Y310517D01*
X324701Y333043D01*
X326487Y334829D01*
X341013Y334829D01*
X342799Y333043D01*
X342799Y310517D01*
X341013Y308731D01*
X326487Y308731D01*
G37*
%LPD*%
%LPC*%
G36*
X306487Y308731D02*
X306487Y308731D01*
X304701Y310517D01*
X304701Y333043D01*
X306487Y334829D01*
X321013Y334829D01*
X322799Y333043D01*
X322799Y310517D01*
X321013Y308731D01*
X306487Y308731D01*
G37*
%LPD*%
G36*
X424200Y53342D02*
X424200Y53342D01*
X424219Y53340D01*
X424321Y53362D01*
X424423Y53378D01*
X424440Y53388D01*
X424460Y53392D01*
X424549Y53445D01*
X424640Y53494D01*
X424654Y53508D01*
X424671Y53518D01*
X424738Y53597D01*
X424810Y53672D01*
X424818Y53690D01*
X424831Y53705D01*
X424870Y53801D01*
X424913Y53895D01*
X424915Y53915D01*
X424923Y53933D01*
X424941Y54100D01*
X424941Y73570D01*
X424927Y73660D01*
X424919Y73751D01*
X424907Y73781D01*
X424902Y73812D01*
X424859Y73893D01*
X424823Y73977D01*
X424797Y74009D01*
X424786Y74030D01*
X424763Y74052D01*
X424718Y74108D01*
X417978Y80848D01*
X417899Y80905D01*
X417824Y80967D01*
X417800Y80976D01*
X417778Y80992D01*
X417685Y81020D01*
X417594Y81055D01*
X417568Y81056D01*
X417543Y81064D01*
X417446Y81062D01*
X417349Y81066D01*
X417324Y81058D01*
X417297Y81058D01*
X417206Y81024D01*
X417112Y80997D01*
X417091Y80982D01*
X417066Y80973D01*
X416990Y80912D01*
X416910Y80857D01*
X416895Y80836D01*
X416874Y80820D01*
X416822Y80737D01*
X416764Y80660D01*
X416756Y80635D01*
X416741Y80613D01*
X416718Y80518D01*
X416687Y80426D01*
X416688Y80399D01*
X416681Y80374D01*
X416689Y80277D01*
X416690Y80180D01*
X416699Y80148D01*
X416700Y80129D01*
X416713Y80099D01*
X416737Y80019D01*
X417069Y79217D01*
X417069Y54100D01*
X417072Y54080D01*
X417070Y54061D01*
X417092Y53959D01*
X417108Y53857D01*
X417118Y53840D01*
X417122Y53820D01*
X417175Y53731D01*
X417224Y53640D01*
X417238Y53626D01*
X417248Y53609D01*
X417327Y53542D01*
X417402Y53470D01*
X417420Y53462D01*
X417435Y53449D01*
X417531Y53410D01*
X417625Y53367D01*
X417645Y53365D01*
X417663Y53357D01*
X417830Y53339D01*
X424180Y53339D01*
X424200Y53342D01*
G37*
%LPC*%
G36*
X270763Y131063D02*
X270763Y131063D01*
X270763Y146698D01*
X271619Y146563D01*
X273140Y146068D01*
X274565Y145342D01*
X275859Y144402D01*
X276990Y143271D01*
X277930Y141977D01*
X278656Y140552D01*
X279151Y139031D01*
X279401Y137452D01*
X279401Y131063D01*
X270763Y131063D01*
G37*
%LPD*%
%LPC*%
G36*
X186943Y54863D02*
X186943Y54863D01*
X186943Y70498D01*
X187799Y70363D01*
X189320Y69868D01*
X190745Y69142D01*
X192039Y68202D01*
X193170Y67071D01*
X194110Y65777D01*
X194836Y64352D01*
X195331Y62831D01*
X195581Y61252D01*
X195581Y54863D01*
X186943Y54863D01*
G37*
%LPD*%
%LPC*%
G36*
X270763Y128017D02*
X270763Y128017D01*
X279401Y128017D01*
X279401Y121628D01*
X279151Y120049D01*
X278656Y118528D01*
X277930Y117103D01*
X276990Y115809D01*
X275859Y114678D01*
X274565Y113738D01*
X273140Y113012D01*
X271619Y112517D01*
X270763Y112382D01*
X270763Y128017D01*
G37*
%LPD*%
%LPC*%
G36*
X259079Y131063D02*
X259079Y131063D01*
X259079Y137452D01*
X259329Y139031D01*
X259824Y140552D01*
X260550Y141977D01*
X261490Y143271D01*
X262621Y144402D01*
X263915Y145342D01*
X265340Y146068D01*
X266861Y146563D01*
X267717Y146698D01*
X267717Y131063D01*
X259079Y131063D01*
G37*
%LPD*%
%LPC*%
G36*
X175259Y54863D02*
X175259Y54863D01*
X175259Y61252D01*
X175509Y62831D01*
X176004Y64352D01*
X176730Y65777D01*
X177670Y67071D01*
X178801Y68202D01*
X180095Y69142D01*
X181520Y69868D01*
X183041Y70363D01*
X183897Y70498D01*
X183897Y54863D01*
X175259Y54863D01*
G37*
%LPD*%
%LPC*%
G36*
X266861Y112517D02*
X266861Y112517D01*
X265340Y113012D01*
X263915Y113738D01*
X262621Y114678D01*
X261490Y115809D01*
X260550Y117103D01*
X259824Y118528D01*
X259329Y120049D01*
X259079Y121628D01*
X259079Y128017D01*
X267717Y128017D01*
X267717Y112382D01*
X266861Y112517D01*
G37*
%LPD*%
G36*
X370442Y370947D02*
X370442Y370947D01*
X370513Y370953D01*
X370561Y370973D01*
X370612Y370984D01*
X370673Y371021D01*
X370739Y371049D01*
X370795Y371094D01*
X370823Y371110D01*
X370838Y371128D01*
X370870Y371154D01*
X374426Y374710D01*
X374479Y374784D01*
X374539Y374853D01*
X374551Y374883D01*
X374570Y374910D01*
X374597Y374997D01*
X374631Y375082D01*
X374635Y375122D01*
X374642Y375145D01*
X374641Y375177D01*
X374649Y375248D01*
X374649Y387593D01*
X376209Y391359D01*
X376217Y391367D01*
X376238Y391414D01*
X376269Y391456D01*
X376290Y391525D01*
X376320Y391590D01*
X376326Y391642D01*
X376341Y391691D01*
X376339Y391763D01*
X376347Y391834D01*
X376336Y391885D01*
X376335Y391937D01*
X376310Y392005D01*
X376295Y392075D01*
X376268Y392119D01*
X376251Y392168D01*
X376206Y392224D01*
X376169Y392286D01*
X376129Y392320D01*
X376097Y392360D01*
X376037Y392399D01*
X375982Y392446D01*
X375934Y392465D01*
X375890Y392493D01*
X375820Y392511D01*
X375754Y392538D01*
X375683Y392546D01*
X375652Y392554D01*
X375628Y392552D01*
X375587Y392556D01*
X368633Y392556D01*
X368562Y392545D01*
X368490Y392543D01*
X368441Y392525D01*
X368390Y392517D01*
X368327Y392483D01*
X368259Y392458D01*
X368219Y392426D01*
X368173Y392401D01*
X368123Y392349D01*
X368067Y392304D01*
X368039Y392261D01*
X368003Y392223D01*
X367973Y392158D01*
X367934Y392097D01*
X367922Y392047D01*
X367900Y392000D01*
X367892Y391929D01*
X367874Y391859D01*
X367878Y391807D01*
X367873Y391756D01*
X367888Y391685D01*
X367894Y391614D01*
X367914Y391566D01*
X367925Y391515D01*
X367962Y391454D01*
X367990Y391387D01*
X368009Y391364D01*
X369571Y387593D01*
X369571Y371692D01*
X369582Y371621D01*
X369584Y371550D01*
X369602Y371501D01*
X369610Y371449D01*
X369644Y371386D01*
X369669Y371319D01*
X369701Y371278D01*
X369726Y371232D01*
X369778Y371183D01*
X369822Y371127D01*
X369866Y371099D01*
X369904Y371063D01*
X369969Y371033D01*
X370029Y370994D01*
X370080Y370981D01*
X370127Y370959D01*
X370198Y370951D01*
X370268Y370934D01*
X370320Y370938D01*
X370371Y370932D01*
X370442Y370947D01*
G37*
G36*
X395842Y371582D02*
X395842Y371582D01*
X395913Y371588D01*
X395961Y371608D01*
X396012Y371619D01*
X396073Y371656D01*
X396139Y371684D01*
X396195Y371729D01*
X396223Y371745D01*
X396238Y371763D01*
X396270Y371789D01*
X399826Y375345D01*
X399879Y375419D01*
X399939Y375488D01*
X399951Y375518D01*
X399970Y375545D01*
X399997Y375632D01*
X400031Y375717D01*
X400035Y375757D01*
X400042Y375780D01*
X400041Y375812D01*
X400049Y375883D01*
X400049Y387593D01*
X401609Y391359D01*
X401617Y391367D01*
X401638Y391414D01*
X401669Y391456D01*
X401690Y391525D01*
X401720Y391590D01*
X401726Y391642D01*
X401741Y391691D01*
X401739Y391763D01*
X401747Y391834D01*
X401736Y391885D01*
X401735Y391937D01*
X401710Y392005D01*
X401695Y392075D01*
X401668Y392119D01*
X401651Y392168D01*
X401606Y392224D01*
X401569Y392286D01*
X401529Y392320D01*
X401497Y392360D01*
X401437Y392399D01*
X401382Y392446D01*
X401334Y392465D01*
X401290Y392493D01*
X401220Y392511D01*
X401154Y392538D01*
X401083Y392546D01*
X401052Y392554D01*
X401028Y392552D01*
X400987Y392556D01*
X394033Y392556D01*
X393962Y392545D01*
X393890Y392543D01*
X393841Y392525D01*
X393790Y392517D01*
X393727Y392483D01*
X393659Y392458D01*
X393619Y392426D01*
X393573Y392401D01*
X393523Y392349D01*
X393467Y392304D01*
X393439Y392261D01*
X393403Y392223D01*
X393373Y392158D01*
X393334Y392097D01*
X393322Y392047D01*
X393300Y392000D01*
X393292Y391929D01*
X393274Y391859D01*
X393278Y391807D01*
X393273Y391756D01*
X393288Y391685D01*
X393294Y391614D01*
X393314Y391566D01*
X393325Y391515D01*
X393362Y391454D01*
X393390Y391387D01*
X393409Y391364D01*
X394971Y387593D01*
X394971Y372327D01*
X394982Y372256D01*
X394984Y372185D01*
X395002Y372136D01*
X395010Y372084D01*
X395044Y372021D01*
X395069Y371954D01*
X395101Y371913D01*
X395126Y371867D01*
X395178Y371818D01*
X395222Y371762D01*
X395266Y371734D01*
X395304Y371698D01*
X395369Y371668D01*
X395429Y371629D01*
X395480Y371616D01*
X395527Y371594D01*
X395598Y371586D01*
X395668Y371569D01*
X395720Y371573D01*
X395771Y371567D01*
X395842Y371582D01*
G37*
%LPC*%
G36*
X251383Y392683D02*
X251383Y392683D01*
X251383Y402209D01*
X260261Y402209D01*
X261037Y402001D01*
X261732Y401600D01*
X262300Y401032D01*
X262701Y400337D01*
X262909Y399561D01*
X262909Y392683D01*
X251383Y392683D01*
G37*
%LPD*%
%LPC*%
G36*
X236811Y392683D02*
X236811Y392683D01*
X236811Y399561D01*
X237019Y400337D01*
X237420Y401032D01*
X237988Y401600D01*
X238683Y402001D01*
X239459Y402209D01*
X248337Y402209D01*
X248337Y392683D01*
X236811Y392683D01*
G37*
%LPD*%
%LPC*%
G36*
X271893Y90173D02*
X271893Y90173D01*
X271893Y101699D01*
X278271Y101699D01*
X279047Y101491D01*
X279742Y101090D01*
X280310Y100522D01*
X280711Y99827D01*
X280919Y99051D01*
X280919Y90173D01*
X271893Y90173D01*
G37*
%LPD*%
%LPC*%
G36*
X259821Y90173D02*
X259821Y90173D01*
X259821Y99051D01*
X260029Y99827D01*
X260430Y100522D01*
X260998Y101090D01*
X261693Y101491D01*
X262469Y101699D01*
X268847Y101699D01*
X268847Y90173D01*
X259821Y90173D01*
G37*
%LPD*%
%LPC*%
G36*
X271893Y75601D02*
X271893Y75601D01*
X271893Y87127D01*
X280919Y87127D01*
X280919Y78249D01*
X280711Y77473D01*
X280310Y76778D01*
X279742Y76210D01*
X279047Y75809D01*
X278271Y75601D01*
X271893Y75601D01*
G37*
%LPD*%
%LPC*%
G36*
X262469Y75601D02*
X262469Y75601D01*
X261693Y75809D01*
X260998Y76210D01*
X260430Y76778D01*
X260029Y77473D01*
X259821Y78249D01*
X259821Y87127D01*
X268847Y87127D01*
X268847Y75601D01*
X262469Y75601D01*
G37*
%LPD*%
%LPC*%
G36*
X235273Y323303D02*
X235273Y323303D01*
X235273Y334829D01*
X240151Y334829D01*
X240927Y334621D01*
X241622Y334220D01*
X242190Y333652D01*
X242591Y332957D01*
X242799Y332181D01*
X242799Y323303D01*
X235273Y323303D01*
G37*
%LPD*%
%LPC*%
G36*
X224701Y323303D02*
X224701Y323303D01*
X224701Y332181D01*
X224909Y332957D01*
X225310Y333652D01*
X225878Y334220D01*
X226573Y334621D01*
X227349Y334829D01*
X232227Y334829D01*
X232227Y323303D01*
X224701Y323303D01*
G37*
%LPD*%
%LPC*%
G36*
X235273Y308731D02*
X235273Y308731D01*
X235273Y320257D01*
X242799Y320257D01*
X242799Y311379D01*
X242591Y310603D01*
X242190Y309908D01*
X241622Y309340D01*
X240927Y308939D01*
X240151Y308731D01*
X235273Y308731D01*
G37*
%LPD*%
%LPC*%
G36*
X227349Y308731D02*
X227349Y308731D01*
X226573Y308939D01*
X225878Y309340D01*
X225310Y309908D01*
X224909Y310603D01*
X224701Y311379D01*
X224701Y320257D01*
X232227Y320257D01*
X232227Y308731D01*
X227349Y308731D01*
G37*
%LPD*%
G36*
X439440Y53342D02*
X439440Y53342D01*
X439459Y53340D01*
X439561Y53362D01*
X439663Y53378D01*
X439680Y53388D01*
X439700Y53392D01*
X439789Y53445D01*
X439880Y53494D01*
X439894Y53508D01*
X439911Y53518D01*
X439978Y53597D01*
X440050Y53672D01*
X440058Y53690D01*
X440071Y53705D01*
X440110Y53801D01*
X440153Y53895D01*
X440155Y53915D01*
X440163Y53933D01*
X440181Y54100D01*
X440181Y69760D01*
X440167Y69850D01*
X440159Y69941D01*
X440147Y69971D01*
X440142Y70002D01*
X440099Y70083D01*
X440063Y70167D01*
X440037Y70199D01*
X440026Y70220D01*
X440003Y70242D01*
X439958Y70298D01*
X437418Y72838D01*
X437360Y72880D01*
X437308Y72929D01*
X437261Y72951D01*
X437219Y72982D01*
X437150Y73003D01*
X437085Y73033D01*
X437033Y73039D01*
X436983Y73054D01*
X436912Y73052D01*
X436841Y73060D01*
X436790Y73049D01*
X436738Y73048D01*
X436670Y73023D01*
X436600Y73008D01*
X436555Y72981D01*
X436507Y72963D01*
X436451Y72918D01*
X436389Y72882D01*
X436355Y72842D01*
X436315Y72809D01*
X436276Y72749D01*
X436229Y72695D01*
X436210Y72646D01*
X436182Y72603D01*
X436164Y72533D01*
X436137Y72467D01*
X436129Y72395D01*
X436121Y72364D01*
X436123Y72341D01*
X436119Y72300D01*
X436119Y54100D01*
X436122Y54080D01*
X436120Y54061D01*
X436142Y53959D01*
X436158Y53857D01*
X436168Y53840D01*
X436172Y53820D01*
X436225Y53731D01*
X436274Y53640D01*
X436288Y53626D01*
X436298Y53609D01*
X436377Y53542D01*
X436452Y53470D01*
X436470Y53462D01*
X436485Y53449D01*
X436581Y53410D01*
X436675Y53367D01*
X436695Y53365D01*
X436713Y53357D01*
X436880Y53339D01*
X439420Y53339D01*
X439440Y53342D01*
G37*
%LPC*%
G36*
X226061Y353313D02*
X226061Y353313D01*
X226061Y360191D01*
X226269Y360967D01*
X226670Y361662D01*
X227238Y362230D01*
X227933Y362631D01*
X228709Y362839D01*
X234087Y362839D01*
X234087Y353313D01*
X226061Y353313D01*
G37*
%LPD*%
%LPC*%
G36*
X228709Y340741D02*
X228709Y340741D01*
X227933Y340949D01*
X227238Y341350D01*
X226670Y341918D01*
X226269Y342613D01*
X226061Y343389D01*
X226061Y350267D01*
X234087Y350267D01*
X234087Y340741D01*
X228709Y340741D01*
G37*
%LPD*%
%LPC*%
G36*
X244093Y74523D02*
X244093Y74523D01*
X244093Y82549D01*
X250471Y82549D01*
X251247Y82341D01*
X251942Y81940D01*
X252510Y81372D01*
X252911Y80677D01*
X253119Y79901D01*
X253119Y74523D01*
X244093Y74523D01*
G37*
%LPD*%
%LPC*%
G36*
X232021Y74523D02*
X232021Y74523D01*
X232021Y79901D01*
X232229Y80677D01*
X232630Y81372D01*
X233198Y81940D01*
X233893Y82341D01*
X234669Y82549D01*
X241047Y82549D01*
X241047Y74523D01*
X232021Y74523D01*
G37*
%LPD*%
%LPC*%
G36*
X185421Y382523D02*
X185421Y382523D01*
X185421Y388901D01*
X185629Y389677D01*
X186030Y390372D01*
X186598Y390940D01*
X187293Y391341D01*
X188069Y391549D01*
X193447Y391549D01*
X193447Y382523D01*
X185421Y382523D01*
G37*
%LPD*%
%LPC*%
G36*
X188069Y370451D02*
X188069Y370451D01*
X187293Y370659D01*
X186598Y371060D01*
X186030Y371628D01*
X185629Y372323D01*
X185421Y373099D01*
X185421Y379477D01*
X193447Y379477D01*
X193447Y370451D01*
X188069Y370451D01*
G37*
%LPD*%
%LPC*%
G36*
X129793Y363043D02*
X129793Y363043D01*
X129793Y371569D01*
X133671Y371569D01*
X134447Y371361D01*
X135142Y370960D01*
X135710Y370392D01*
X136111Y369697D01*
X136319Y368921D01*
X136319Y363043D01*
X129793Y363043D01*
G37*
%LPD*%
%LPC*%
G36*
X129793Y351471D02*
X129793Y351471D01*
X129793Y359997D01*
X136319Y359997D01*
X136319Y354119D01*
X136111Y353343D01*
X135710Y352648D01*
X135142Y352080D01*
X134447Y351679D01*
X133671Y351471D01*
X129793Y351471D01*
G37*
%LPD*%
%LPC*%
G36*
X120221Y363043D02*
X120221Y363043D01*
X120221Y368921D01*
X120429Y369697D01*
X120830Y370392D01*
X121398Y370960D01*
X122093Y371361D01*
X122869Y371569D01*
X126747Y371569D01*
X126747Y363043D01*
X120221Y363043D01*
G37*
%LPD*%
%LPC*%
G36*
X122869Y351471D02*
X122869Y351471D01*
X122093Y351679D01*
X121398Y352080D01*
X120830Y352648D01*
X120429Y353343D01*
X120221Y354119D01*
X120221Y359997D01*
X126747Y359997D01*
X126747Y351471D01*
X122869Y351471D01*
G37*
%LPD*%
G36*
X243670Y166070D02*
X243670Y166070D01*
X243741Y166076D01*
X243789Y166096D01*
X243840Y166107D01*
X243901Y166144D01*
X243967Y166172D01*
X244023Y166217D01*
X244051Y166233D01*
X244066Y166251D01*
X244098Y166277D01*
X244478Y166657D01*
X244532Y166731D01*
X244591Y166800D01*
X244603Y166830D01*
X244622Y166857D01*
X244649Y166944D01*
X244683Y167029D01*
X244687Y167070D01*
X244694Y167092D01*
X244693Y167124D01*
X244701Y167195D01*
X244701Y177810D01*
X244690Y177881D01*
X244688Y177952D01*
X244670Y178001D01*
X244662Y178053D01*
X244628Y178116D01*
X244603Y178183D01*
X244571Y178224D01*
X244546Y178270D01*
X244495Y178319D01*
X244450Y178375D01*
X244406Y178403D01*
X244368Y178439D01*
X244303Y178470D01*
X244243Y178508D01*
X244192Y178521D01*
X244145Y178543D01*
X244074Y178551D01*
X244004Y178568D01*
X243952Y178564D01*
X243901Y178570D01*
X243830Y178555D01*
X243759Y178549D01*
X243711Y178529D01*
X243660Y178518D01*
X243599Y178481D01*
X243533Y178453D01*
X243477Y178408D01*
X243449Y178392D01*
X243434Y178374D01*
X243402Y178348D01*
X243022Y177968D01*
X242968Y177894D01*
X242909Y177825D01*
X242897Y177795D01*
X242878Y177768D01*
X242851Y177681D01*
X242817Y177596D01*
X242813Y177555D01*
X242806Y177533D01*
X242807Y177501D01*
X242799Y177430D01*
X242799Y166815D01*
X242810Y166744D01*
X242812Y166673D01*
X242830Y166624D01*
X242838Y166572D01*
X242872Y166509D01*
X242897Y166442D01*
X242929Y166401D01*
X242954Y166355D01*
X243005Y166306D01*
X243050Y166250D01*
X243094Y166222D01*
X243132Y166186D01*
X243197Y166155D01*
X243257Y166117D01*
X243308Y166104D01*
X243355Y166082D01*
X243426Y166074D01*
X243496Y166057D01*
X243548Y166061D01*
X243599Y166055D01*
X243670Y166070D01*
G37*
G36*
X378966Y118967D02*
X378966Y118967D01*
X378993Y118967D01*
X379084Y119001D01*
X379178Y119028D01*
X379199Y119043D01*
X379224Y119052D01*
X379300Y119113D01*
X379380Y119168D01*
X379395Y119189D01*
X379416Y119205D01*
X379468Y119288D01*
X379526Y119365D01*
X379534Y119390D01*
X379549Y119412D01*
X379572Y119507D01*
X379603Y119599D01*
X379602Y119626D01*
X379609Y119651D01*
X379601Y119748D01*
X379600Y119845D01*
X379591Y119877D01*
X379590Y119896D01*
X379577Y119926D01*
X379553Y120006D01*
X379221Y120808D01*
X379221Y121540D01*
X379218Y121560D01*
X379220Y121579D01*
X379198Y121681D01*
X379182Y121783D01*
X379172Y121800D01*
X379168Y121820D01*
X379115Y121909D01*
X379066Y122000D01*
X379052Y122014D01*
X379042Y122031D01*
X378963Y122098D01*
X378888Y122170D01*
X378870Y122178D01*
X378855Y122191D01*
X378759Y122230D01*
X378665Y122273D01*
X378645Y122275D01*
X378627Y122283D01*
X378460Y122301D01*
X377025Y122301D01*
X376954Y122290D01*
X376883Y122288D01*
X376834Y122270D01*
X376782Y122262D01*
X376719Y122228D01*
X376652Y122203D01*
X376611Y122171D01*
X376565Y122146D01*
X376516Y122095D01*
X376460Y122050D01*
X376432Y122006D01*
X376396Y121968D01*
X376366Y121903D01*
X376327Y121843D01*
X376314Y121792D01*
X376292Y121745D01*
X376284Y121674D01*
X376267Y121604D01*
X376271Y121552D01*
X376265Y121501D01*
X376280Y121430D01*
X376286Y121359D01*
X376306Y121311D01*
X376317Y121260D01*
X376354Y121199D01*
X376382Y121133D01*
X376427Y121077D01*
X376443Y121049D01*
X376461Y121034D01*
X376487Y121002D01*
X378312Y119177D01*
X378391Y119120D01*
X378466Y119058D01*
X378490Y119048D01*
X378512Y119033D01*
X378605Y119005D01*
X378696Y118970D01*
X378722Y118969D01*
X378747Y118961D01*
X378844Y118963D01*
X378941Y118959D01*
X378966Y118967D01*
G37*
%LPC*%
G36*
X269239Y129539D02*
X269239Y129539D01*
X269239Y129541D01*
X269241Y129541D01*
X269241Y129539D01*
X269239Y129539D01*
G37*
%LPD*%
%LPC*%
G36*
X128269Y361519D02*
X128269Y361519D01*
X128269Y361521D01*
X128271Y361521D01*
X128271Y361519D01*
X128269Y361519D01*
G37*
%LPD*%
%LPC*%
G36*
X270369Y88649D02*
X270369Y88649D01*
X270369Y88651D01*
X270371Y88651D01*
X270371Y88649D01*
X270369Y88649D01*
G37*
%LPD*%
%LPC*%
G36*
X249859Y391159D02*
X249859Y391159D01*
X249859Y391161D01*
X249861Y391161D01*
X249861Y391159D01*
X249859Y391159D01*
G37*
%LPD*%
%LPC*%
G36*
X233749Y321779D02*
X233749Y321779D01*
X233749Y321781D01*
X233751Y321781D01*
X233751Y321779D01*
X233749Y321779D01*
G37*
%LPD*%
D10*
X233750Y171780D03*
X253750Y171780D03*
X273750Y171780D03*
X293750Y171780D03*
X313750Y171780D03*
X333750Y171780D03*
X353750Y171780D03*
X373750Y171780D03*
D11*
X218750Y196780D03*
X218750Y216780D03*
X218750Y236780D03*
X218750Y256780D03*
X218750Y276780D03*
X218750Y296780D03*
D10*
X233750Y321780D03*
X253750Y321780D03*
X273750Y321780D03*
X293750Y321780D03*
X313750Y321780D03*
X333750Y321780D03*
X353750Y321780D03*
X373750Y321780D03*
D12*
X270370Y88650D03*
X293370Y88650D03*
X316370Y88650D03*
D13*
X293370Y25650D03*
D14*
X88900Y289814D02*
X88900Y309626D01*
X29210Y289306D02*
X29210Y269494D01*
X148590Y269494D02*
X148590Y289306D01*
X148590Y167386D02*
X148590Y147574D01*
X29210Y147574D02*
X29210Y167386D01*
D15*
X128270Y361520D03*
X118770Y339520D03*
X137770Y339520D03*
D16*
X87560Y350520D03*
X47060Y350520D03*
D17*
X161290Y339750D03*
X161290Y358750D03*
D18*
X40170Y53204D02*
X40170Y35297D01*
X90170Y35297D02*
X90170Y53204D01*
X140170Y53204D02*
X140170Y35297D01*
D19*
X383210Y133350D03*
X437210Y133350D03*
D20*
X242570Y54000D03*
X242570Y73000D03*
D21*
X213970Y381000D03*
X194970Y381000D03*
D22*
X294640Y136652D02*
X294640Y122428D01*
X269240Y122428D02*
X269240Y136652D01*
X210820Y60452D02*
X210820Y46228D01*
X185420Y46228D02*
X185420Y60452D01*
D17*
X393700Y24790D03*
X393700Y43790D03*
X431800Y24790D03*
X431800Y43790D03*
X412750Y24790D03*
X412750Y43790D03*
D23*
X235610Y351790D03*
X254610Y351790D03*
X293980Y349250D03*
X274980Y349250D03*
D19*
X303860Y391160D03*
X249860Y391160D03*
D22*
X334010Y385572D02*
X334010Y371348D01*
X359410Y371348D02*
X359410Y385572D01*
X384810Y385572D02*
X384810Y371348D01*
X410210Y371348D02*
X410210Y385572D01*
X435610Y385572D02*
X435610Y371348D01*
D24*
X243840Y74295D02*
X242570Y73000D01*
X268605Y87630D02*
X270370Y88650D01*
X241935Y74295D02*
X242570Y73000D01*
X270370Y88650D02*
X270510Y89535D01*
X234315Y321945D02*
X234315Y350520D01*
X235610Y351790D01*
X234315Y321945D02*
X233750Y321780D01*
X129540Y361950D02*
X128270Y361520D01*
X249860Y391160D02*
X249555Y392430D01*
X194970Y381000D02*
X194310Y382905D01*
X232410Y350520D02*
X235610Y351790D01*
X194310Y379095D02*
X194970Y381000D01*
X435610Y378460D02*
X435610Y344170D01*
X393065Y301625D01*
X393065Y192735D01*
X437210Y148590D02*
X437210Y133350D01*
X437210Y148590D02*
X393065Y192735D01*
X249860Y391160D02*
X251460Y392430D01*
X128270Y361520D02*
X125730Y361950D01*
X161925Y358140D02*
X165735Y358140D01*
X205740Y318135D01*
X205740Y175260D01*
X224790Y156210D01*
X241935Y156210D01*
X253365Y167640D01*
X253365Y171450D01*
X161925Y358140D02*
X161290Y358750D01*
X253750Y171780D02*
X253365Y171450D01*
X255270Y321945D02*
X255270Y350520D01*
X254610Y351790D01*
X255270Y321945D02*
X253750Y321780D01*
X160020Y340995D02*
X139065Y340995D01*
X137770Y339520D01*
X160020Y340995D02*
X161290Y339750D01*
X213970Y381000D02*
X234315Y381000D01*
X249555Y365760D01*
X262890Y365760D01*
X274320Y354330D01*
X274320Y350520D01*
X274980Y349250D01*
X333375Y379095D02*
X333375Y388620D01*
X316230Y405765D01*
X291465Y405765D01*
X262890Y377190D01*
X262890Y365760D01*
X333375Y379095D02*
X334010Y378460D01*
X394335Y24765D02*
X411480Y24765D01*
X394335Y24765D02*
X393700Y24790D01*
X411480Y24765D02*
X412750Y24790D01*
X415290Y24765D02*
X430530Y24765D01*
X431800Y24790D01*
X415290Y24765D02*
X412750Y24790D01*
X234315Y173355D02*
X234315Y177165D01*
X245745Y188595D01*
X381000Y188595D01*
X381000Y189865D02*
X421005Y149860D01*
X421005Y97155D01*
X445770Y72390D01*
X445770Y34290D01*
X436245Y24765D01*
X434340Y24765D01*
X233750Y171780D02*
X234315Y173355D01*
X431800Y24790D02*
X434340Y24765D01*
X392430Y26670D02*
X293370Y26670D01*
X293370Y25650D01*
X392430Y26670D02*
X393700Y24790D01*
X344805Y388620D02*
X335280Y388620D01*
X344805Y388620D02*
X354330Y398145D01*
X422910Y398145D01*
X422910Y346710D01*
X381000Y304800D01*
X334010Y378460D02*
X335280Y388620D01*
X381000Y304800D02*
X381000Y189865D01*
X381000Y188595D01*
X45720Y295275D02*
X45720Y350520D01*
X45720Y295275D02*
X30480Y280035D01*
X45720Y350520D02*
X47060Y350520D01*
X30480Y280035D02*
X29210Y279400D01*
X210820Y53340D02*
X241935Y53340D01*
X242570Y54000D01*
X306705Y78105D02*
X316230Y87630D01*
X306705Y78105D02*
X306705Y76200D01*
X285750Y55245D01*
X243840Y55245D01*
X316230Y87630D02*
X316370Y88650D01*
X243840Y55245D02*
X242570Y54000D01*
X30480Y188595D02*
X30480Y278130D01*
X30480Y188595D02*
X68580Y150495D01*
X68580Y36195D01*
X83820Y20955D01*
X179070Y20955D01*
X209550Y51435D01*
X30480Y278130D02*
X29210Y279400D01*
X210820Y53340D02*
X209550Y51435D01*
D25*
X140970Y45720D02*
X140970Y148590D01*
X148590Y156210D01*
X140970Y45720D02*
X140170Y44250D01*
X148590Y156210D02*
X148590Y157480D01*
X89535Y45720D02*
X89535Y299085D01*
X89535Y45720D02*
X90170Y44250D01*
X89535Y299085D02*
X88900Y299720D01*
X40005Y146685D02*
X40005Y45720D01*
X40005Y146685D02*
X29210Y157480D01*
X40005Y45720D02*
X40170Y44250D01*
D24*
X430530Y43815D02*
X430530Y76200D01*
X384810Y121920D01*
X384810Y133350D01*
X430530Y43815D02*
X431800Y43790D01*
X384810Y133350D02*
X383210Y133350D01*
X375285Y142875D02*
X375285Y171450D01*
X375285Y142875D02*
X382905Y135255D01*
X375285Y171450D02*
X373750Y171780D01*
X382905Y135255D02*
X383210Y133350D01*
X118110Y340995D02*
X97155Y340995D01*
X87630Y350520D01*
X118110Y340995D02*
X118770Y339520D01*
X87630Y350520D02*
X87560Y350520D01*
X118110Y337185D02*
X118110Y310515D01*
X148590Y280035D01*
X118110Y337185D02*
X118770Y339520D01*
X148590Y280035D02*
X148590Y279400D01*
X386715Y43815D02*
X392430Y43815D01*
X386715Y43815D02*
X300990Y129540D01*
X294640Y129540D01*
X392430Y43815D02*
X393700Y43790D01*
X312420Y142875D02*
X312420Y171450D01*
X312420Y142875D02*
X300990Y131445D01*
X312420Y171450D02*
X313750Y171780D01*
X300990Y131445D02*
X294640Y129540D01*
X411480Y78105D02*
X411480Y43815D01*
X411480Y78105D02*
X335280Y154305D01*
X335280Y171450D01*
X411480Y43815D02*
X412750Y43790D01*
X335280Y171450D02*
X333750Y171780D01*
X293370Y321945D02*
X293370Y348615D01*
X293980Y349250D01*
X293370Y321945D02*
X293750Y321780D01*
X302895Y358140D02*
X302895Y390525D01*
X302895Y358140D02*
X295275Y350520D01*
X302895Y390525D02*
X303860Y391160D01*
X295275Y350520D02*
X293980Y349250D01*
X354330Y346710D02*
X354330Y321945D01*
X354330Y346710D02*
X384810Y377190D01*
X354330Y321945D02*
X353750Y321780D01*
X384810Y377190D02*
X384810Y378460D01*
X375285Y342900D02*
X375285Y321945D01*
X375285Y342900D02*
X409575Y377190D01*
X375285Y321945D02*
X373750Y321780D01*
X409575Y377190D02*
X410210Y378460D01*
M02*
