G04 EAGLE Gerber RS-274X export*
G75*
%MOMM*%
%FSLAX34Y34*%
%LPD*%
%INSilkscreen Bottom*%
%IPPOS*%
%AMOC8*
5,1,8,0,0,1.08239X$1,22.5*%
G01*
%ADD10C,0.127000*%
%ADD11C,0.254000*%
%ADD12C,0.101600*%
%ADD13C,0.203200*%
%ADD14R,0.675000X2.450000*%


D10*
X218750Y306780D02*
X218750Y326780D01*
X223750Y326780D01*
X458750Y326780D02*
X458750Y166780D01*
X458750Y326780D02*
X383750Y326780D01*
X383750Y166780D02*
X458750Y166780D01*
X223750Y166780D02*
X218750Y166780D01*
X218750Y186780D01*
D11*
X393750Y181780D02*
X448750Y181780D01*
X448750Y201780D01*
X448750Y226780D01*
X423750Y226780D01*
X423750Y246780D01*
X448750Y246780D01*
X448750Y266780D01*
X423750Y266780D01*
X423750Y286780D01*
X448750Y286780D01*
X448750Y311780D01*
X413750Y311780D01*
X393750Y201780D02*
X448750Y201780D01*
D12*
X364258Y207288D02*
X364258Y212481D01*
X364258Y207288D02*
X375942Y207288D01*
X375942Y212481D01*
X370749Y211183D02*
X370749Y207288D01*
X364258Y220304D02*
X364260Y220403D01*
X364266Y220503D01*
X364275Y220602D01*
X364288Y220700D01*
X364305Y220798D01*
X364326Y220896D01*
X364351Y220992D01*
X364379Y221087D01*
X364411Y221181D01*
X364446Y221274D01*
X364485Y221366D01*
X364528Y221456D01*
X364573Y221544D01*
X364623Y221631D01*
X364675Y221715D01*
X364731Y221798D01*
X364789Y221878D01*
X364851Y221956D01*
X364916Y222031D01*
X364984Y222104D01*
X365054Y222174D01*
X365127Y222242D01*
X365202Y222307D01*
X365280Y222369D01*
X365360Y222427D01*
X365443Y222483D01*
X365527Y222535D01*
X365614Y222585D01*
X365702Y222630D01*
X365792Y222673D01*
X365884Y222712D01*
X365977Y222747D01*
X366071Y222779D01*
X366166Y222807D01*
X366262Y222832D01*
X366360Y222853D01*
X366458Y222870D01*
X366556Y222883D01*
X366655Y222892D01*
X366755Y222898D01*
X366854Y222900D01*
X364258Y220304D02*
X364260Y220160D01*
X364266Y220015D01*
X364275Y219871D01*
X364288Y219728D01*
X364305Y219584D01*
X364326Y219441D01*
X364351Y219299D01*
X364379Y219158D01*
X364411Y219017D01*
X364447Y218877D01*
X364486Y218738D01*
X364529Y218600D01*
X364576Y218464D01*
X364626Y218328D01*
X364680Y218194D01*
X364737Y218062D01*
X364798Y217931D01*
X364862Y217802D01*
X364930Y217674D01*
X365000Y217548D01*
X365075Y217424D01*
X365152Y217303D01*
X365233Y217183D01*
X365316Y217065D01*
X365403Y216950D01*
X365493Y216837D01*
X365586Y216726D01*
X365681Y216618D01*
X365780Y216512D01*
X365881Y216409D01*
X373346Y216734D02*
X373445Y216736D01*
X373545Y216742D01*
X373644Y216751D01*
X373742Y216764D01*
X373840Y216781D01*
X373938Y216802D01*
X374034Y216827D01*
X374129Y216855D01*
X374223Y216887D01*
X374316Y216922D01*
X374408Y216961D01*
X374498Y217004D01*
X374586Y217049D01*
X374673Y217099D01*
X374757Y217151D01*
X374840Y217207D01*
X374920Y217265D01*
X374998Y217327D01*
X375073Y217392D01*
X375146Y217460D01*
X375216Y217530D01*
X375284Y217603D01*
X375349Y217678D01*
X375411Y217756D01*
X375469Y217836D01*
X375525Y217919D01*
X375577Y218003D01*
X375627Y218090D01*
X375672Y218178D01*
X375715Y218268D01*
X375754Y218360D01*
X375789Y218453D01*
X375821Y218547D01*
X375849Y218642D01*
X375874Y218739D01*
X375895Y218836D01*
X375912Y218934D01*
X375925Y219032D01*
X375934Y219131D01*
X375940Y219231D01*
X375942Y219330D01*
X375940Y219466D01*
X375934Y219602D01*
X375925Y219738D01*
X375912Y219874D01*
X375894Y220009D01*
X375874Y220143D01*
X375849Y220277D01*
X375821Y220411D01*
X375788Y220543D01*
X375753Y220674D01*
X375713Y220805D01*
X375670Y220934D01*
X375624Y221062D01*
X375573Y221188D01*
X375520Y221314D01*
X375462Y221437D01*
X375402Y221559D01*
X375338Y221679D01*
X375270Y221798D01*
X375200Y221914D01*
X375126Y222028D01*
X375049Y222141D01*
X374968Y222251D01*
X371074Y218032D02*
X371127Y217946D01*
X371184Y217862D01*
X371243Y217780D01*
X371306Y217700D01*
X371372Y217623D01*
X371440Y217548D01*
X371512Y217476D01*
X371586Y217407D01*
X371663Y217341D01*
X371742Y217278D01*
X371824Y217218D01*
X371908Y217161D01*
X371994Y217107D01*
X372082Y217057D01*
X372172Y217010D01*
X372263Y216966D01*
X372357Y216927D01*
X372451Y216890D01*
X372547Y216858D01*
X372645Y216829D01*
X372743Y216804D01*
X372842Y216783D01*
X372942Y216765D01*
X373042Y216752D01*
X373143Y216742D01*
X373245Y216736D01*
X373346Y216734D01*
X369126Y221603D02*
X369073Y221689D01*
X369016Y221773D01*
X368957Y221855D01*
X368894Y221935D01*
X368828Y222012D01*
X368760Y222087D01*
X368688Y222159D01*
X368614Y222228D01*
X368537Y222294D01*
X368458Y222357D01*
X368376Y222417D01*
X368292Y222474D01*
X368206Y222528D01*
X368118Y222578D01*
X368028Y222625D01*
X367937Y222669D01*
X367843Y222708D01*
X367749Y222745D01*
X367653Y222777D01*
X367555Y222806D01*
X367457Y222831D01*
X367358Y222852D01*
X367258Y222870D01*
X367158Y222883D01*
X367057Y222893D01*
X366955Y222899D01*
X366854Y222901D01*
X369126Y221602D02*
X371074Y218032D01*
X375942Y228009D02*
X364258Y228009D01*
X375942Y228009D02*
X375942Y231254D01*
X375940Y231367D01*
X375934Y231480D01*
X375924Y231593D01*
X375910Y231706D01*
X375893Y231818D01*
X375871Y231929D01*
X375846Y232039D01*
X375816Y232149D01*
X375783Y232257D01*
X375746Y232364D01*
X375706Y232470D01*
X375661Y232574D01*
X375613Y232677D01*
X375562Y232778D01*
X375507Y232877D01*
X375449Y232974D01*
X375387Y233069D01*
X375322Y233162D01*
X375254Y233252D01*
X375183Y233340D01*
X375108Y233426D01*
X375031Y233509D01*
X374951Y233589D01*
X374868Y233666D01*
X374782Y233741D01*
X374694Y233812D01*
X374604Y233880D01*
X374511Y233945D01*
X374416Y234007D01*
X374319Y234065D01*
X374220Y234120D01*
X374119Y234171D01*
X374016Y234219D01*
X373912Y234264D01*
X373806Y234304D01*
X373699Y234341D01*
X373591Y234374D01*
X373481Y234404D01*
X373371Y234429D01*
X373260Y234451D01*
X373148Y234468D01*
X373035Y234482D01*
X372922Y234492D01*
X372809Y234498D01*
X372696Y234500D01*
X372583Y234498D01*
X372470Y234492D01*
X372357Y234482D01*
X372244Y234468D01*
X372132Y234451D01*
X372021Y234429D01*
X371911Y234404D01*
X371801Y234374D01*
X371693Y234341D01*
X371586Y234304D01*
X371480Y234264D01*
X371376Y234219D01*
X371273Y234171D01*
X371172Y234120D01*
X371073Y234065D01*
X370976Y234007D01*
X370881Y233945D01*
X370788Y233880D01*
X370698Y233812D01*
X370610Y233741D01*
X370524Y233666D01*
X370441Y233589D01*
X370361Y233509D01*
X370284Y233426D01*
X370209Y233340D01*
X370138Y233252D01*
X370070Y233162D01*
X370005Y233069D01*
X369943Y232974D01*
X369885Y232877D01*
X369830Y232778D01*
X369779Y232677D01*
X369731Y232574D01*
X369686Y232470D01*
X369646Y232364D01*
X369609Y232257D01*
X369576Y232149D01*
X369546Y232039D01*
X369521Y231929D01*
X369499Y231818D01*
X369482Y231706D01*
X369468Y231593D01*
X369458Y231480D01*
X369452Y231367D01*
X369450Y231254D01*
X369451Y231254D02*
X369451Y228009D01*
X368802Y239001D02*
X368802Y246791D01*
X373346Y251842D02*
X375942Y255088D01*
X364258Y255088D01*
X364258Y258333D02*
X364258Y251842D01*
X375942Y266842D02*
X375940Y266949D01*
X375934Y267055D01*
X375924Y267161D01*
X375911Y267267D01*
X375893Y267373D01*
X375872Y267477D01*
X375847Y267581D01*
X375818Y267684D01*
X375786Y267785D01*
X375749Y267885D01*
X375709Y267984D01*
X375666Y268082D01*
X375619Y268178D01*
X375568Y268272D01*
X375514Y268364D01*
X375457Y268454D01*
X375397Y268542D01*
X375333Y268627D01*
X375266Y268710D01*
X375196Y268791D01*
X375124Y268869D01*
X375048Y268945D01*
X374970Y269017D01*
X374889Y269087D01*
X374806Y269154D01*
X374721Y269218D01*
X374633Y269278D01*
X374543Y269335D01*
X374451Y269389D01*
X374357Y269440D01*
X374261Y269487D01*
X374163Y269530D01*
X374064Y269570D01*
X373964Y269607D01*
X373863Y269639D01*
X373760Y269668D01*
X373656Y269693D01*
X373552Y269714D01*
X373446Y269732D01*
X373340Y269745D01*
X373234Y269755D01*
X373128Y269761D01*
X373021Y269763D01*
X375942Y266842D02*
X375940Y266721D01*
X375934Y266600D01*
X375924Y266480D01*
X375911Y266359D01*
X375893Y266240D01*
X375872Y266120D01*
X375847Y266002D01*
X375818Y265885D01*
X375785Y265768D01*
X375749Y265653D01*
X375708Y265539D01*
X375665Y265426D01*
X375617Y265314D01*
X375566Y265205D01*
X375511Y265097D01*
X375453Y264990D01*
X375392Y264886D01*
X375327Y264784D01*
X375259Y264684D01*
X375188Y264586D01*
X375114Y264490D01*
X375037Y264397D01*
X374956Y264307D01*
X374873Y264219D01*
X374787Y264134D01*
X374698Y264051D01*
X374607Y263972D01*
X374513Y263895D01*
X374417Y263822D01*
X374319Y263752D01*
X374218Y263685D01*
X374115Y263621D01*
X374010Y263561D01*
X373903Y263504D01*
X373795Y263450D01*
X373685Y263400D01*
X373573Y263354D01*
X373460Y263311D01*
X373345Y263272D01*
X370749Y268790D02*
X370826Y268869D01*
X370907Y268945D01*
X370990Y269018D01*
X371075Y269088D01*
X371163Y269155D01*
X371253Y269219D01*
X371345Y269279D01*
X371440Y269336D01*
X371536Y269390D01*
X371634Y269441D01*
X371734Y269488D01*
X371836Y269532D01*
X371939Y269572D01*
X372043Y269608D01*
X372149Y269640D01*
X372255Y269669D01*
X372363Y269694D01*
X372471Y269716D01*
X372581Y269733D01*
X372690Y269747D01*
X372800Y269756D01*
X372911Y269762D01*
X373021Y269764D01*
X370749Y268790D02*
X364258Y263272D01*
X364258Y269763D01*
X364258Y275106D02*
X364258Y280299D01*
X364258Y275106D02*
X375942Y275106D01*
X375942Y280299D01*
X370749Y279001D02*
X370749Y275106D01*
X362960Y284114D02*
X377240Y289307D01*
X375942Y294156D02*
X364258Y294156D01*
X375942Y294156D02*
X375942Y299349D01*
X370749Y299349D02*
X370749Y294156D01*
D13*
X326140Y74930D02*
X326140Y39370D01*
X326140Y74930D02*
X260600Y74930D01*
X260600Y39370D01*
X326140Y39370D01*
X77660Y363520D02*
X57060Y363520D01*
X57060Y337520D02*
X77660Y337520D01*
D14*
X74585Y350520D03*
D13*
X380210Y120850D02*
X380210Y115850D01*
X440210Y115850D01*
X440210Y120850D01*
X440210Y145850D02*
X440210Y150850D01*
X380210Y150850D01*
X380210Y145850D01*
X397710Y125850D02*
X422710Y125850D01*
X422210Y140850D02*
X397710Y140850D01*
X306860Y403660D02*
X306860Y408660D01*
X246860Y408660D01*
X246860Y403660D01*
X246860Y378660D02*
X246860Y373660D01*
X306860Y373660D01*
X306860Y378660D01*
X289360Y398660D02*
X264360Y398660D01*
X264860Y383660D02*
X289360Y383660D01*
M02*
