G04 EAGLE Gerber RS-274X export*
G75*
%MOMM*%
%FSLAX34Y34*%
%LPD*%
%INSoldermask Bottom*%
%IPPOS*%
%AMOC8*
5,1,8,0,0,1.08239X$1,22.5*%
G01*
%ADD10R,1.403200X2.203200*%
%ADD11R,1.703200X1.403200*%
%ADD12R,1.703200X2.203200*%
%ADD13R,4.003200X2.203200*%
%ADD14C,2.184400*%
%ADD15R,1.203200X1.603200*%
%ADD16R,2.003200X2.603200*%
%ADD17R,1.803200X1.503200*%
%ADD18C,1.993900*%
%ADD19R,2.203200X1.803200*%
%ADD20R,1.703200X1.503200*%
%ADD21R,1.503200X1.703200*%
%ADD22C,1.625600*%
%ADD23R,1.503200X1.803200*%


D10*
X233750Y171780D03*
X253750Y171780D03*
X273750Y171780D03*
X293750Y171780D03*
X313750Y171780D03*
X333750Y171780D03*
X353750Y171780D03*
X373750Y171780D03*
D11*
X218750Y196780D03*
X218750Y216780D03*
X218750Y236780D03*
X218750Y256780D03*
X218750Y276780D03*
X218750Y296780D03*
D10*
X233750Y321780D03*
X253750Y321780D03*
X273750Y321780D03*
X293750Y321780D03*
X313750Y321780D03*
X333750Y321780D03*
X353750Y321780D03*
X373750Y321780D03*
D12*
X270370Y88650D03*
X293370Y88650D03*
X316370Y88650D03*
D13*
X293370Y25650D03*
D14*
X88900Y289814D02*
X88900Y309626D01*
X29210Y289306D02*
X29210Y269494D01*
X148590Y269494D02*
X148590Y289306D01*
X148590Y167386D02*
X148590Y147574D01*
X29210Y147574D02*
X29210Y167386D01*
D15*
X128270Y361520D03*
X118770Y339520D03*
X137770Y339520D03*
D16*
X87560Y350520D03*
X47060Y350520D03*
D17*
X161290Y339750D03*
X161290Y358750D03*
D18*
X40170Y53204D02*
X40170Y35297D01*
X90170Y35297D02*
X90170Y53204D01*
X140170Y53204D02*
X140170Y35297D01*
D19*
X383210Y133350D03*
X437210Y133350D03*
D20*
X242570Y54000D03*
X242570Y73000D03*
D21*
X213970Y381000D03*
X194970Y381000D03*
D22*
X294640Y136652D02*
X294640Y122428D01*
X269240Y122428D02*
X269240Y136652D01*
X210820Y60452D02*
X210820Y46228D01*
X185420Y46228D02*
X185420Y60452D01*
D17*
X393700Y24790D03*
X393700Y43790D03*
X431800Y24790D03*
X431800Y43790D03*
X412750Y24790D03*
X412750Y43790D03*
D23*
X235610Y351790D03*
X254610Y351790D03*
X293980Y349250D03*
X274980Y349250D03*
D19*
X303860Y391160D03*
X249860Y391160D03*
D22*
X334010Y385572D02*
X334010Y371348D01*
X359410Y371348D02*
X359410Y385572D01*
X384810Y385572D02*
X384810Y371348D01*
X410210Y371348D02*
X410210Y385572D01*
X435610Y385572D02*
X435610Y371348D01*
M02*
