G04 EAGLE Gerber RS-274X export*
G75*
%MOMM*%
%FSLAX34Y34*%
%LPD*%
%INSolderpaste Bottom*%
%IPPOS*%
%AMOC8*
5,1,8,0,0,1.08239X$1,22.5*%
G01*
%ADD10R,1.200000X2.000000*%
%ADD11R,1.500000X1.200000*%
%ADD12R,1.500000X2.000000*%
%ADD13R,3.800000X2.000000*%
%ADD14R,1.000000X1.400000*%
%ADD15R,1.800000X2.400000*%
%ADD16R,1.600000X1.300000*%
%ADD17R,2.000000X1.600000*%
%ADD18R,1.500000X1.300000*%
%ADD19R,1.300000X1.500000*%
%ADD20R,1.300000X1.600000*%


D10*
X233750Y171780D03*
X253750Y171780D03*
X273750Y171780D03*
X293750Y171780D03*
X313750Y171780D03*
X333750Y171780D03*
X353750Y171780D03*
X373750Y171780D03*
D11*
X218750Y196780D03*
X218750Y216780D03*
X218750Y236780D03*
X218750Y256780D03*
X218750Y276780D03*
X218750Y296780D03*
D10*
X233750Y321780D03*
X253750Y321780D03*
X273750Y321780D03*
X293750Y321780D03*
X313750Y321780D03*
X333750Y321780D03*
X353750Y321780D03*
X373750Y321780D03*
D12*
X270370Y88650D03*
X293370Y88650D03*
X316370Y88650D03*
D13*
X293370Y25650D03*
D14*
X128270Y361520D03*
X118770Y339520D03*
X137770Y339520D03*
D15*
X87560Y350520D03*
X47060Y350520D03*
D16*
X161290Y339750D03*
X161290Y358750D03*
D17*
X383210Y133350D03*
X437210Y133350D03*
D18*
X242570Y54000D03*
X242570Y73000D03*
D19*
X213970Y381000D03*
X194970Y381000D03*
D16*
X393700Y24790D03*
X393700Y43790D03*
X431800Y24790D03*
X431800Y43790D03*
X412750Y24790D03*
X412750Y43790D03*
D20*
X235610Y351790D03*
X254610Y351790D03*
X293980Y349250D03*
X274980Y349250D03*
D17*
X303860Y391160D03*
X249860Y391160D03*
M02*
